<?xml version="1.0" encoding="utf-8"?>
<!-- Generator: Adobe Illustrator 16.0.0, SVG Export Plug-In . SVG Version: 6.00 Build 0)  -->
<!DOCTYPE svg PUBLIC "-//W3C//DTD SVG 1.1//EN" "http://www.w3.org/Graphics/SVG/1.1/DTD/svg11.dtd">
<svg version="1.1" id="Réteg_1" xmlns="http://www.w3.org/2000/svg" xmlns:xlink="http://www.w3.org/1999/xlink" x="0px" y="0px"
	 width="115.282px" height="74.49px" viewBox="0 0 115.282 74.49" enable-background="new 0 0 115.282 74.49" xml:space="preserve">
<polygon points="186.321,-300.082 111.831,-357.472 111.831,-339.348 162.795,-300.082 "/>
<polygon points="146.385,-287.436 111.831,-260.817 111.831,-242.692 169.912,-287.436 "/>
<polygon points="0.502,-300.082 74.992,-242.692 74.992,-260.816 24.029,-300.082 "/>
<polygon points="40.438,-312.729 74.993,-339.347 74.993,-357.472 16.912,-312.729 "/>
<path d="M610.458-296.443v14.307l-74.49,39.394v-14.307L610.458-296.443z M523.322-263.737l-61.844-32.706v14.307l61.844,32.706
	V-263.737z M510.675-331.454l-49.197-26.017v14.306l49.197,26.019V-331.454z M535.968-318.077l-12.646-6.688v14.307l12.646,6.688
	l74.49-39.394v-14.307L535.968-318.077z M535.968-287.562L535.968-287.562l-74.49-39.394v14.308l74.49,39.393V-287.562z
	 M548.615-294.25v14.307l61.844-32.705v-14.308L548.615-294.25z"/>
<polygon points="320.674,-316.853 271.479,-358.099 271.479,-341.596 320.674,-300.349 "/>
<polygon points="345.969,-259.933 345.969,-259.933 271.479,-322.385 271.479,-305.882 345.969,-243.428 "/>
<polygon points="345.969,-295.646 333.322,-306.25 333.322,-289.746 345.969,-279.142 420.458,-341.596 420.458,-358.1 "/>
<polygon points="358.616,-254.032 420.458,-305.882 420.458,-322.386 358.616,-270.536 "/>
<g>
	<defs>
		<line id="SVGID_1_" x1="-20.33" y1="-381.888" x2="821.56" y2="-381.888"/>
	</defs>
	<clipPath id="SVGID_2_">
		<use xlink:href="#SVGID_1_"  overflow="visible"/>
	</clipPath>
</g>
<g>
	<defs>
		<line id="SVGID_3_" x1="-20.33" y1="-381.888" x2="821.56" y2="-381.888"/>
	</defs>
	<clipPath id="SVGID_4_">
		<use xlink:href="#SVGID_3_"  overflow="visible"/>
	</clipPath>
</g>
<g>
	<defs>
		<line id="SVGID_5_" x1="-20.33" y1="-381.888" x2="821.56" y2="-381.888"/>
	</defs>
	<clipPath id="SVGID_6_">
		<use xlink:href="#SVGID_5_"  overflow="visible"/>
	</clipPath>
</g>
<g>
	<defs>
		<line id="SVGID_7_" x1="-20.33" y1="-381.888" x2="821.56" y2="-381.888"/>
	</defs>
	<clipPath id="SVGID_8_">
		<use xlink:href="#SVGID_7_"  overflow="visible"/>
	</clipPath>
</g>
<g>
	<defs>
		<line id="SVGID_9_" x1="-20.33" y1="-381.888" x2="821.56" y2="-381.888"/>
	</defs>
	<clipPath id="SVGID_10_">
		<use xlink:href="#SVGID_9_"  overflow="visible"/>
	</clipPath>
</g>
<polygon points="57.892,-98.57 0.502,-24.08 18.626,-24.08 57.892,-75.043 "/>
<polygon points="70.538,-58.633 97.157,-24.079 115.282,-24.079 70.538,-82.16 "/>
<line fill="none" x1="111.198" y1="-123.634" x2="111.198" y2="718.254"/>
<line fill="none" x1="111.198" y1="-123.634" x2="111.198" y2="718.254"/>
<line fill="none" x1="111.198" y1="-123.634" x2="111.198" y2="718.254"/>
<line fill="none" x1="111.198" y1="-123.634" x2="111.198" y2="718.254"/>
<line fill="none" x1="111.198" y1="-123.634" x2="111.198" y2="718.254"/>
<polygon points="188.716,-95.736 246.106,-21.247 227.982,-21.247 188.716,-72.209 "/>
<polygon points="176.07,-55.8 149.451,-21.246 131.326,-21.246 176.07,-79.327 "/>
<line fill="none" x1="72.411" y1="-123.634" x2="72.411" y2="718.254"/>
<line fill="none" x1="72.411" y1="-123.634" x2="72.411" y2="718.254"/>
<line fill="none" x1="72.411" y1="-123.634" x2="72.411" y2="718.254"/>
<line fill="none" x1="72.411" y1="-123.634" x2="72.411" y2="718.254"/>
<line fill="none" x1="72.411" y1="-123.634" x2="72.411" y2="718.254"/>
<polygon points="0,-170.082 74.49,-227.472 74.49,-209.348 23.526,-170.082 "/>
<polygon points="39.936,-157.436 74.49,-130.817 74.49,-112.692 16.409,-157.436 "/>
<polygon points="185.819,-170.082 111.329,-112.692 111.329,-130.816 162.292,-170.082 "/>
<polygon points="145.882,-182.729 111.328,-209.347 111.328,-227.472 169.409,-182.729 "/>
<polygon points="57.39,74.49 0,0 18.124,0 57.39,50.963 "/>
<polygon points="70.036,34.553 96.655,-0.001 114.78,-0.001 70.036,58.08 "/>
<line fill="none" x1="138.196" y1="79.321" x2="138.196" y2="-746.568"/>
<line fill="none" x1="138.196" y1="79.321" x2="138.196" y2="-746.568"/>
<line fill="none" x1="138.196" y1="79.321" x2="138.196" y2="-746.568"/>
<line fill="none" x1="138.196" y1="79.321" x2="138.196" y2="-746.568"/>
<line fill="none" x1="138.196" y1="79.321" x2="138.196" y2="-746.568"/>
<polygon points="188.214,74.49 245.604,0 227.48,0 188.214,50.963 "/>
<polygon points="175.568,34.553 148.949,-0.001 130.824,-0.001 175.568,58.08 "/>
<line fill="none" x1="105.408" y1="76.488" x2="105.408" y2="-749.402"/>
<line fill="none" x1="105.408" y1="76.488" x2="105.408" y2="-749.402"/>
<line fill="none" x1="105.408" y1="76.488" x2="105.408" y2="-749.402"/>
<line fill="none" x1="105.408" y1="76.488" x2="105.408" y2="-749.402"/>
<line fill="none" x1="105.408" y1="76.488" x2="105.408" y2="-749.402"/>
<polygon points="74.49,152.192 0,94.803 0,112.926 50.964,152.192 "/>
<polygon points="34.554,164.839 0,191.457 0,209.582 58.081,164.839 "/>
<line fill="none" x1="-6.134" y1="559.363" x2="-6.134" y2="-282.527"/>
<line fill="none" x1="-6.134" y1="559.363" x2="-6.134" y2="-282.527"/>
<line fill="none" x1="-6.134" y1="559.363" x2="-6.134" y2="-282.527"/>
<line fill="none" x1="-6.134" y1="559.363" x2="-6.134" y2="-282.527"/>
<line fill="none" x1="-6.134" y1="559.363" x2="-6.134" y2="-282.527"/>
<line fill="none" x1="-5.422" y1="547.596" x2="-5.422" y2="-294.294"/>
<line fill="none" x1="-5.422" y1="547.596" x2="-5.422" y2="-294.294"/>
<line fill="none" x1="-5.422" y1="547.596" x2="-5.422" y2="-294.294"/>
<line fill="none" x1="-5.422" y1="547.596" x2="-5.422" y2="-294.294"/>
<line fill="none" x1="-5.422" y1="547.596" x2="-5.422" y2="-294.294"/>
<polygon points="73.913,151.918 148.402,209.309 148.402,191.184 97.439,151.918 "/>
<polygon points="113.849,139.271 148.403,112.653 148.403,94.528 90.322,139.271 "/>
<line fill="none" x1="54.081" y1="86.112" x2="895.971" y2="86.112"/>
<line fill="none" x1="54.081" y1="86.112" x2="895.971" y2="86.112"/>
<line fill="none" x1="54.081" y1="86.112" x2="895.971" y2="86.112"/>
<line fill="none" x1="54.081" y1="86.112" x2="895.971" y2="86.112"/>
<line fill="none" x1="54.081" y1="86.112" x2="895.971" y2="86.112"/>
<line fill="none" x1="397.776" y1="587.863" x2="67.276" y2="185.473"/>
<line fill="none" x1="397.776" y1="587.863" x2="67.276" y2="185.473"/>
<line fill="none" x1="397.776" y1="587.863" x2="67.276" y2="185.473"/>
<line fill="none" x1="397.776" y1="587.863" x2="67.276" y2="185.473"/>
<line fill="none" x1="397.776" y1="587.863" x2="67.276" y2="185.473"/>
<line fill="none" x1="365.988" y1="587.863" x2="35.488" y2="185.473"/>
<line fill="none" x1="365.988" y1="587.863" x2="35.488" y2="185.473"/>
<line fill="none" x1="365.988" y1="587.863" x2="35.488" y2="185.473"/>
<line fill="none" x1="365.988" y1="587.863" x2="35.488" y2="185.473"/>
<line fill="none" x1="365.988" y1="587.863" x2="35.488" y2="185.473"/>
<line fill="none" x1="74.323" y1="335.199" x2="101.823" y2="1165.321"/>
<line fill="none" x1="74.323" y1="335.199" x2="101.823" y2="1165.321"/>
<line fill="none" x1="74.323" y1="335.199" x2="101.823" y2="1165.321"/>
<line fill="none" x1="74.323" y1="335.199" x2="101.823" y2="1165.321"/>
<line fill="none" x1="74.323" y1="335.199" x2="101.823" y2="1165.321"/>
<polygon points="121.444,297.686 46.954,355.076 46.954,336.951 97.917,297.686 "/>
<polygon points="81.507,285.039 46.953,258.42 46.953,240.295 105.034,285.039 "/>
<line fill="none" x1="67.821" y1="544.254" x2="67.821" y2="-281.635"/>
<line fill="none" x1="67.821" y1="544.254" x2="67.821" y2="-281.635"/>
<line fill="none" x1="67.821" y1="544.254" x2="67.821" y2="-281.635"/>
<line fill="none" x1="67.821" y1="544.254" x2="67.821" y2="-281.635"/>
<line fill="none" x1="67.821" y1="544.254" x2="67.821" y2="-281.635"/>
<polygon points="74.411,297.361 -0.08,239.971 -0.08,258.096 50.884,297.361 "/>
<polygon points="34.474,310.008 -0.08,336.627 -0.08,354.752 58,310.008 "/>
<line fill="none" x1="26.286" y1="673.932" x2="26.286" y2="-151.958"/>
<line fill="none" x1="26.286" y1="673.932" x2="26.286" y2="-151.958"/>
<line fill="none" x1="26.286" y1="673.932" x2="26.286" y2="-151.958"/>
<line fill="none" x1="26.286" y1="673.932" x2="26.286" y2="-151.958"/>
<line fill="none" x1="26.286" y1="673.932" x2="26.286" y2="-151.958"/>
<line fill="none" x1="-6.502" y1="676.766" x2="-6.502" y2="-149.125"/>
<line fill="none" x1="-6.502" y1="676.766" x2="-6.502" y2="-149.125"/>
<line fill="none" x1="-6.502" y1="676.766" x2="-6.502" y2="-149.125"/>
<line fill="none" x1="-6.502" y1="676.766" x2="-6.502" y2="-149.125"/>
<line fill="none" x1="-6.502" y1="676.766" x2="-6.502" y2="-149.125"/>
<line fill="none" x1="22.911" y1="1120.998" x2="-10.589" y2="306.875"/>
<line fill="none" x1="22.911" y1="1120.998" x2="-10.589" y2="306.875"/>
<line fill="none" x1="22.911" y1="1120.998" x2="-10.589" y2="306.875"/>
<line fill="none" x1="22.911" y1="1120.998" x2="-10.589" y2="306.875"/>
<line fill="none" x1="22.911" y1="1120.998" x2="-10.589" y2="306.875"/>
<polygon points="510.675,-171.628 461.478,-197.645 461.478,-183.339 510.675,-157.32 "/>
<polygon points="535.968,-158.251 523.322,-164.939 523.322,-150.632 535.968,-143.944 610.458,-183.338 610.458,-197.645 "/>
<polygon points="535.968,-127.735 535.968,-127.735 461.478,-167.129 461.478,-152.821 535.968,-113.428 "/>
<polygon points="548.615,-134.423 548.615,-120.116 610.458,-152.821 610.458,-167.129 "/>
<line fill="none" x1="-20.33" y1="-222.062" x2="821.56" y2="-222.062"/>
<line fill="none" x1="-20.33" y1="-222.062" x2="821.56" y2="-222.062"/>
<line fill="none" x1="-20.33" y1="-222.062" x2="821.56" y2="-222.062"/>
<line fill="none" x1="-20.33" y1="-222.062" x2="821.56" y2="-222.062"/>
<line fill="none" x1="-20.33" y1="-222.062" x2="821.56" y2="-222.062"/>
<polygon points="525.459,43.529 499.442,92.727 513.749,92.727 539.767,43.529 "/>
<polygon points="538.836,18.236 532.148,30.882 546.456,30.882 553.143,18.236 513.749,-56.254 499.442,-56.254 "/>
<polygon points="569.352,18.236 569.352,18.236 529.958,92.727 544.266,92.727 583.66,18.236 "/>
<polygon points="562.665,5.589 576.971,5.589 544.266,-56.254 529.958,-56.254 "/>
<line fill="none" x1="475.026" y1="574.533" x2="475.026" y2="-267.356"/>
<line fill="none" x1="475.026" y1="574.533" x2="475.026" y2="-267.356"/>
<line fill="none" x1="475.026" y1="574.533" x2="475.026" y2="-267.356"/>
<line fill="none" x1="475.026" y1="574.533" x2="475.026" y2="-267.356"/>
<line fill="none" x1="475.026" y1="574.533" x2="475.026" y2="-267.356"/>
</svg>
