<?xml version="1.0" encoding="utf-8"?>
<!-- Generator: Adobe Illustrator 16.0.0, SVG Export Plug-In . SVG Version: 6.00 Build 0)  -->
<!DOCTYPE svg PUBLIC "-//W3C//DTD SVG 1.1//EN" "http://www.w3.org/Graphics/SVG/1.1/DTD/svg11.dtd">
<svg version="1.1" id="Réteg_1" xmlns="http://www.w3.org/2000/svg" xmlns:xlink="http://www.w3.org/1999/xlink" x="0px" y="0px"
	 width="84.218px" height="148.981px" viewBox="0 0 84.218 148.981" enable-background="new 0 0 84.218 148.981"
	 xml:space="preserve">
<polygon points="-313.121,-243.828 -387.611,-301.218 -387.611,-283.094 -336.647,-243.828 "/>
<polygon points="-353.057,-231.181 -387.611,-204.563 -387.611,-186.438 -329.53,-231.181 "/>
<polygon points="-498.94,-243.828 -424.45,-186.438 -424.45,-204.562 -475.413,-243.828 "/>
<polygon points="-459.003,-256.474 -424.449,-283.092 -424.449,-301.217 -482.53,-256.474 "/>
<path d="M111.017-240.189v14.307l-74.49,39.394v-14.307L111.017-240.189z M23.88-207.483l-61.844-32.706v14.307l61.844,32.706
	V-207.483z M11.233-275.2l-49.197-26.017v14.306l49.197,26.019V-275.2z M36.526-261.823l-12.646-6.688v14.307l12.646,6.688
	l74.49-39.394v-14.307L36.526-261.823z M36.526-231.307L36.526-231.307l-74.49-39.394v14.308L36.526-217V-231.307z M49.173-237.995
	v14.307l61.844-32.705v-14.308L49.173-237.995z"/>
<polygon points="-178.768,-260.599 -227.963,-301.845 -227.963,-285.342 -178.768,-244.095 "/>
<polygon points="-153.473,-203.678 -153.473,-203.678 -227.963,-266.131 -227.963,-249.628 -153.473,-187.174 "/>
<polygon points="-153.473,-239.392 -166.12,-249.996 -166.12,-233.492 -153.473,-222.888 -78.983,-285.341 -78.983,-301.846 "/>
<polygon points="-140.826,-197.778 -78.983,-249.628 -78.983,-266.132 -140.826,-214.282 "/>
<g>
	<defs>
		<line id="SVGID_1_" x1="-519.771" y1="-325.633" x2="322.118" y2="-325.633"/>
	</defs>
	<clipPath id="SVGID_2_">
		<use xlink:href="#SVGID_1_"  overflow="visible"/>
	</clipPath>
</g>
<g>
	<defs>
		<line id="SVGID_3_" x1="-519.771" y1="-325.633" x2="322.118" y2="-325.633"/>
	</defs>
	<clipPath id="SVGID_4_">
		<use xlink:href="#SVGID_3_"  overflow="visible"/>
	</clipPath>
</g>
<g>
	<defs>
		<line id="SVGID_5_" x1="-519.771" y1="-325.633" x2="322.118" y2="-325.633"/>
	</defs>
	<clipPath id="SVGID_6_">
		<use xlink:href="#SVGID_5_"  overflow="visible"/>
	</clipPath>
</g>
<g>
	<defs>
		<line id="SVGID_7_" x1="-519.771" y1="-325.633" x2="322.118" y2="-325.633"/>
	</defs>
	<clipPath id="SVGID_8_">
		<use xlink:href="#SVGID_7_"  overflow="visible"/>
	</clipPath>
</g>
<g>
	<defs>
		<line id="SVGID_9_" x1="-519.771" y1="-325.633" x2="322.118" y2="-325.633"/>
	</defs>
	<clipPath id="SVGID_10_">
		<use xlink:href="#SVGID_9_"  overflow="visible"/>
	</clipPath>
</g>
<polygon points="-441.55,-39.482 -498.94,35.008 -480.816,35.008 -441.55,-15.955 "/>
<polygon points="-428.904,0.455 -402.285,35.009 -384.16,35.009 -428.904,-23.072 "/>
<line fill="none" x1="-388.244" y1="-64.546" x2="-388.244" y2="777.342"/>
<line fill="none" x1="-388.244" y1="-64.546" x2="-388.244" y2="777.342"/>
<line fill="none" x1="-388.244" y1="-64.546" x2="-388.244" y2="777.342"/>
<line fill="none" x1="-388.244" y1="-64.546" x2="-388.244" y2="777.342"/>
<line fill="none" x1="-388.244" y1="-64.546" x2="-388.244" y2="777.342"/>
<polygon points="-310.726,-39.482 -253.335,35.008 -271.459,35.008 -310.726,-15.955 "/>
<polygon points="-323.372,0.455 -349.991,35.009 -368.116,35.009 -323.372,-23.072 "/>
<line fill="none" x1="-427.031" y1="-64.546" x2="-427.031" y2="777.342"/>
<line fill="none" x1="-427.031" y1="-64.546" x2="-427.031" y2="777.342"/>
<line fill="none" x1="-427.031" y1="-64.546" x2="-427.031" y2="777.342"/>
<line fill="none" x1="-427.031" y1="-64.546" x2="-427.031" y2="777.342"/>
<line fill="none" x1="-427.031" y1="-64.546" x2="-427.031" y2="777.342"/>
<polygon points="-499.442,-113.828 -424.952,-171.218 -424.952,-153.094 -475.916,-113.828 "/>
<polygon points="-459.506,-101.181 -424.952,-74.563 -424.952,-56.438 -483.033,-101.181 "/>
<polygon points="-313.623,-113.828 -388.113,-56.438 -388.113,-74.562 -337.15,-113.828 "/>
<polygon points="-353.56,-126.474 -388.114,-153.092 -388.114,-171.217 -330.033,-126.474 "/>
<polygon points="-442.052,130.745 -499.442,56.254 -481.318,56.254 -442.052,107.217 "/>
<polygon points="-429.406,90.807 -402.787,56.253 -384.662,56.253 -429.406,114.334 "/>
<line fill="none" x1="-361.246" y1="135.576" x2="-361.246" y2="-690.314"/>
<line fill="none" x1="-361.246" y1="135.576" x2="-361.246" y2="-690.314"/>
<line fill="none" x1="-361.246" y1="135.576" x2="-361.246" y2="-690.314"/>
<line fill="none" x1="-361.246" y1="135.576" x2="-361.246" y2="-690.314"/>
<line fill="none" x1="-361.246" y1="135.576" x2="-361.246" y2="-690.314"/>
<polygon points="-311.228,130.745 -253.837,56.254 -271.961,56.254 -311.228,107.217 "/>
<polygon points="-323.874,90.807 -350.493,56.253 -368.618,56.253 -323.874,114.334 "/>
<line fill="none" x1="-394.034" y1="135.576" x2="-394.034" y2="-690.314"/>
<line fill="none" x1="-394.034" y1="135.576" x2="-394.034" y2="-690.314"/>
<line fill="none" x1="-394.034" y1="135.576" x2="-394.034" y2="-690.314"/>
<line fill="none" x1="-394.034" y1="135.576" x2="-394.034" y2="-690.314"/>
<line fill="none" x1="-394.034" y1="135.576" x2="-394.034" y2="-690.314"/>
<polygon points="-424.952,208.447 -499.442,151.057 -499.442,169.18 -448.478,208.447 "/>
<polygon points="-464.888,221.093 -499.442,247.711 -499.442,265.836 -441.361,221.093 "/>
<line fill="none" x1="-505.576" y1="615.618" x2="-505.576" y2="-226.272"/>
<line fill="none" x1="-505.576" y1="615.618" x2="-505.576" y2="-226.272"/>
<line fill="none" x1="-505.576" y1="615.618" x2="-505.576" y2="-226.272"/>
<line fill="none" x1="-505.576" y1="615.618" x2="-505.576" y2="-226.272"/>
<line fill="none" x1="-505.576" y1="615.618" x2="-505.576" y2="-226.272"/>
<line fill="none" x1="-504.864" y1="603.85" x2="-504.864" y2="-238.04"/>
<line fill="none" x1="-504.864" y1="603.85" x2="-504.864" y2="-238.04"/>
<line fill="none" x1="-504.864" y1="603.85" x2="-504.864" y2="-238.04"/>
<line fill="none" x1="-504.864" y1="603.85" x2="-504.864" y2="-238.04"/>
<line fill="none" x1="-504.864" y1="603.85" x2="-504.864" y2="-238.04"/>
<polygon points="-425.529,208.172 -351.04,265.563 -351.04,247.438 -402.002,208.172 "/>
<polygon points="-385.593,195.526 -351.039,168.908 -351.039,150.783 -409.12,195.526 "/>
<line fill="none" x1="-445.361" y1="142.367" x2="396.529" y2="142.367"/>
<line fill="none" x1="-445.361" y1="142.367" x2="396.529" y2="142.367"/>
<line fill="none" x1="-445.361" y1="142.367" x2="396.529" y2="142.367"/>
<line fill="none" x1="-445.361" y1="142.367" x2="396.529" y2="142.367"/>
<line fill="none" x1="-445.361" y1="142.367" x2="396.529" y2="142.367"/>
<line fill="none" x1="-101.666" y1="644.118" x2="-432.166" y2="241.727"/>
<line fill="none" x1="-101.666" y1="644.118" x2="-432.166" y2="241.727"/>
<line fill="none" x1="-101.666" y1="644.118" x2="-432.166" y2="241.727"/>
<line fill="none" x1="-101.666" y1="644.118" x2="-432.166" y2="241.727"/>
<line fill="none" x1="-101.666" y1="644.118" x2="-432.166" y2="241.727"/>
<line fill="none" x1="-133.454" y1="644.118" x2="-463.954" y2="241.727"/>
<line fill="none" x1="-133.454" y1="644.118" x2="-463.954" y2="241.727"/>
<line fill="none" x1="-133.454" y1="644.118" x2="-463.954" y2="241.727"/>
<line fill="none" x1="-133.454" y1="644.118" x2="-463.954" y2="241.727"/>
<line fill="none" x1="-133.454" y1="644.118" x2="-463.954" y2="241.727"/>
<line fill="none" x1="-425.119" y1="391.454" x2="-397.619" y2="1221.576"/>
<line fill="none" x1="-425.119" y1="391.454" x2="-397.619" y2="1221.576"/>
<line fill="none" x1="-425.119" y1="391.454" x2="-397.619" y2="1221.576"/>
<line fill="none" x1="-425.119" y1="391.454" x2="-397.619" y2="1221.576"/>
<line fill="none" x1="-425.119" y1="391.454" x2="-397.619" y2="1221.576"/>
<polygon points="-377.998,353.94 -452.488,411.331 -452.488,393.206 -401.525,353.94 "/>
<polygon points="-417.935,341.293 -452.489,314.674 -452.489,296.549 -394.408,341.293 "/>
<line fill="none" x1="-431.621" y1="603.342" x2="-431.621" y2="-222.547"/>
<line fill="none" x1="-431.621" y1="603.342" x2="-431.621" y2="-222.547"/>
<line fill="none" x1="-431.621" y1="603.342" x2="-431.621" y2="-222.547"/>
<line fill="none" x1="-431.621" y1="603.342" x2="-431.621" y2="-222.547"/>
<line fill="none" x1="-431.621" y1="603.342" x2="-431.621" y2="-222.547"/>
<polygon points="-425.031,353.616 -499.522,296.225 -499.522,314.35 -448.558,353.616 "/>
<polygon points="-464.968,366.262 -499.522,392.881 -499.522,411.006 -441.441,366.262 "/>
<line fill="none" x1="-473.156" y1="733.02" x2="-473.156" y2="-92.87"/>
<line fill="none" x1="-473.156" y1="733.02" x2="-473.156" y2="-92.87"/>
<line fill="none" x1="-473.156" y1="733.02" x2="-473.156" y2="-92.87"/>
<line fill="none" x1="-473.156" y1="733.02" x2="-473.156" y2="-92.87"/>
<line fill="none" x1="-473.156" y1="733.02" x2="-473.156" y2="-92.87"/>
<line fill="none" x1="-505.944" y1="733.02" x2="-505.944" y2="-92.87"/>
<line fill="none" x1="-505.944" y1="733.02" x2="-505.944" y2="-92.87"/>
<line fill="none" x1="-505.944" y1="733.02" x2="-505.944" y2="-92.87"/>
<line fill="none" x1="-505.944" y1="733.02" x2="-505.944" y2="-92.87"/>
<line fill="none" x1="-505.944" y1="733.02" x2="-505.944" y2="-92.87"/>
<line fill="none" x1="-476.531" y1="1177.252" x2="-510.031" y2="363.129"/>
<line fill="none" x1="-476.531" y1="1177.252" x2="-510.031" y2="363.129"/>
<line fill="none" x1="-476.531" y1="1177.252" x2="-510.031" y2="363.129"/>
<line fill="none" x1="-476.531" y1="1177.252" x2="-510.031" y2="363.129"/>
<line fill="none" x1="-476.531" y1="1177.252" x2="-510.031" y2="363.129"/>
<polygon points="11.233,-115.374 -37.964,-141.391 -37.964,-127.085 11.233,-101.066 "/>
<polygon points="36.526,-101.997 23.88,-108.685 23.88,-94.378 36.526,-87.69 111.017,-127.084 111.017,-141.391 "/>
<polygon points="36.526,-71.481 36.526,-71.481 -37.964,-110.875 -37.964,-96.567 36.526,-57.174 "/>
<polygon points="49.173,-78.169 49.173,-63.862 111.017,-96.567 111.017,-110.875 "/>
<line fill="none" x1="-519.771" y1="-165.807" x2="322.118" y2="-165.807"/>
<line fill="none" x1="-519.771" y1="-165.807" x2="322.118" y2="-165.807"/>
<line fill="none" x1="-519.771" y1="-165.807" x2="322.118" y2="-165.807"/>
<line fill="none" x1="-519.771" y1="-165.807" x2="322.118" y2="-165.807"/>
<line fill="none" x1="-519.771" y1="-165.807" x2="322.118" y2="-165.807"/>
<polygon points="26.018,99.784 0,148.981 14.307,148.981 40.325,99.784 "/>
<polygon points="39.395,74.49 32.706,87.137 47.014,87.137 53.701,74.49 14.307,0 0,0 "/>
<polygon points="69.91,74.49 69.91,74.49 30.517,148.981 44.824,148.981 84.218,74.49 "/>
<polygon points="63.223,61.844 77.529,61.844 44.824,0 30.517,0 "/>
<line fill="none" x1="-24.416" y1="630.788" x2="-24.416" y2="-211.102"/>
<line fill="none" x1="-24.416" y1="630.788" x2="-24.416" y2="-211.102"/>
<line fill="none" x1="-24.416" y1="630.788" x2="-24.416" y2="-211.102"/>
<line fill="none" x1="-24.416" y1="630.788" x2="-24.416" y2="-211.102"/>
<line fill="none" x1="-24.416" y1="630.788" x2="-24.416" y2="-211.102"/>
</svg>
