<?xml version="1.0" encoding="utf-8"?>
<!-- Generator: Adobe Illustrator 16.0.0, SVG Export Plug-In . SVG Version: 6.00 Build 0)  -->
<!DOCTYPE svg PUBLIC "-//W3C//DTD SVG 1.1//EN" "http://www.w3.org/Graphics/SVG/1.1/DTD/svg11.dtd">
<svg version="1.1" id="Réteg_1" xmlns="http://www.w3.org/2000/svg" xmlns:xlink="http://www.w3.org/1999/xlink" x="0px" y="0px"
	 width="121.524px" height="115.105px" viewBox="0 0 121.524 115.105" enable-background="new 0 0 121.524 115.105"
	 xml:space="preserve">
<polygon points="186.401,-540.053 111.911,-597.443 111.911,-579.319 162.875,-540.053 "/>
<polygon points="146.465,-527.406 111.911,-500.788 111.911,-482.663 169.992,-527.406 "/>
<polygon points="0.582,-540.053 75.072,-482.663 75.072,-500.787 24.109,-540.053 "/>
<polygon points="40.519,-552.699 75.073,-579.317 75.073,-597.442 16.992,-552.699 "/>
<path d="M610.539-536.414v14.307l-74.49,39.394v-14.307L610.539-536.414z M523.402-503.708l-61.844-32.706v14.307l61.844,32.706
	V-503.708z M510.755-571.425l-49.197-26.017v14.306l49.197,26.019V-571.425z M536.048-558.048l-12.646-6.688v14.307l12.646,6.688
	l74.49-39.394v-14.307L536.048-558.048z M536.048-527.532L536.048-527.532l-74.49-39.394v14.308l74.49,39.393V-527.532z
	 M548.695-534.22v14.307l61.844-32.705v-14.308L548.695-534.22z"/>
<polygon points="320.754,-556.824 271.559,-598.07 271.559,-581.567 320.754,-540.32 "/>
<polygon points="346.049,-499.903 346.049,-499.903 271.559,-562.356 271.559,-545.853 346.049,-483.399 "/>
<polygon points="346.049,-535.617 333.402,-546.221 333.402,-529.717 346.049,-519.113 420.539,-581.566 420.539,-598.071 "/>
<polygon points="358.696,-494.003 420.539,-545.853 420.539,-562.357 358.696,-510.507 "/>
<g>
	<defs>
		<line id="SVGID_1_" x1="-20.25" y1="-621.858" x2="821.64" y2="-621.858"/>
	</defs>
	<clipPath id="SVGID_2_">
		<use xlink:href="#SVGID_1_"  overflow="visible"/>
	</clipPath>
</g>
<g>
	<defs>
		<line id="SVGID_3_" x1="-20.25" y1="-621.858" x2="821.64" y2="-621.858"/>
	</defs>
	<clipPath id="SVGID_4_">
		<use xlink:href="#SVGID_3_"  overflow="visible"/>
	</clipPath>
</g>
<g>
	<defs>
		<line id="SVGID_5_" x1="-20.25" y1="-621.858" x2="821.64" y2="-621.858"/>
	</defs>
	<clipPath id="SVGID_6_">
		<use xlink:href="#SVGID_5_"  overflow="visible"/>
	</clipPath>
</g>
<g>
	<defs>
		<line id="SVGID_7_" x1="-20.25" y1="-621.858" x2="821.64" y2="-621.858"/>
	</defs>
	<clipPath id="SVGID_8_">
		<use xlink:href="#SVGID_7_"  overflow="visible"/>
	</clipPath>
</g>
<g>
	<defs>
		<line id="SVGID_9_" x1="-20.25" y1="-621.858" x2="821.64" y2="-621.858"/>
	</defs>
	<clipPath id="SVGID_10_">
		<use xlink:href="#SVGID_9_"  overflow="visible"/>
	</clipPath>
</g>
<polygon points="57.972,-335.707 0.582,-261.217 18.706,-261.217 57.972,-312.18 "/>
<polygon points="70.618,-295.771 97.237,-261.216 115.362,-261.216 70.618,-319.297 "/>
<line fill="none" x1="111.278" y1="-360.771" x2="111.278" y2="481.117"/>
<line fill="none" x1="111.278" y1="-360.771" x2="111.278" y2="481.117"/>
<line fill="none" x1="111.278" y1="-360.771" x2="111.278" y2="481.117"/>
<line fill="none" x1="111.278" y1="-360.771" x2="111.278" y2="481.117"/>
<line fill="none" x1="111.278" y1="-360.771" x2="111.278" y2="481.117"/>
<polygon points="188.796,-335.707 246.187,-261.217 228.063,-261.217 188.796,-312.18 "/>
<polygon points="176.15,-295.771 149.531,-261.216 131.406,-261.216 176.15,-319.297 "/>
<line fill="none" x1="72.491" y1="-360.771" x2="72.491" y2="481.117"/>
<line fill="none" x1="72.491" y1="-360.771" x2="72.491" y2="481.117"/>
<line fill="none" x1="72.491" y1="-360.771" x2="72.491" y2="481.117"/>
<line fill="none" x1="72.491" y1="-360.771" x2="72.491" y2="481.117"/>
<line fill="none" x1="72.491" y1="-360.771" x2="72.491" y2="481.117"/>
<polygon points="0.08,-410.053 74.57,-467.443 74.57,-449.319 23.606,-410.053 "/>
<polygon points="40.016,-397.406 74.57,-370.788 74.57,-352.663 16.489,-397.406 "/>
<polygon points="185.899,-410.053 111.409,-352.663 111.409,-370.787 162.372,-410.053 "/>
<polygon points="145.962,-422.699 111.408,-449.317 111.408,-467.442 169.489,-422.699 "/>
<polygon points="57.47,-165.48 0.08,-239.971 18.204,-239.971 57.47,-189.008 "/>
<polygon points="70.116,-205.418 96.735,-239.972 114.86,-239.972 70.116,-181.891 "/>
<line fill="none" x1="138.276" y1="-160.649" x2="138.276" y2="-986.539"/>
<line fill="none" x1="138.276" y1="-160.649" x2="138.276" y2="-986.539"/>
<line fill="none" x1="138.276" y1="-160.649" x2="138.276" y2="-986.539"/>
<line fill="none" x1="138.276" y1="-160.649" x2="138.276" y2="-986.539"/>
<line fill="none" x1="138.276" y1="-160.649" x2="138.276" y2="-986.539"/>
<polygon points="188.294,-165.48 245.685,-239.971 227.561,-239.971 188.294,-189.008 "/>
<polygon points="175.648,-205.418 149.029,-239.972 130.904,-239.972 175.648,-181.891 "/>
<line fill="none" x1="105.488" y1="-160.649" x2="105.488" y2="-986.539"/>
<line fill="none" x1="105.488" y1="-160.649" x2="105.488" y2="-986.539"/>
<line fill="none" x1="105.488" y1="-160.649" x2="105.488" y2="-986.539"/>
<line fill="none" x1="105.488" y1="-160.649" x2="105.488" y2="-986.539"/>
<line fill="none" x1="105.488" y1="-160.649" x2="105.488" y2="-986.539"/>
<polygon points="74.57,-87.778 0.08,-145.168 0.08,-127.045 51.044,-87.778 "/>
<polygon points="34.634,-75.132 0.08,-48.514 0.08,-30.389 58.161,-75.132 "/>
<line fill="none" x1="-6.054" y1="319.393" x2="-6.054" y2="-522.498"/>
<line fill="none" x1="-6.054" y1="319.393" x2="-6.054" y2="-522.498"/>
<line fill="none" x1="-6.054" y1="319.393" x2="-6.054" y2="-522.498"/>
<line fill="none" x1="-6.054" y1="319.393" x2="-6.054" y2="-522.498"/>
<line fill="none" x1="-6.054" y1="319.393" x2="-6.054" y2="-522.498"/>
<line fill="none" x1="-5.342" y1="307.625" x2="-5.342" y2="-534.265"/>
<line fill="none" x1="-5.342" y1="307.625" x2="-5.342" y2="-534.265"/>
<line fill="none" x1="-5.342" y1="307.625" x2="-5.342" y2="-534.265"/>
<line fill="none" x1="-5.342" y1="307.625" x2="-5.342" y2="-534.265"/>
<line fill="none" x1="-5.342" y1="307.625" x2="-5.342" y2="-534.265"/>
<polygon points="73.993,-88.053 148.482,-30.662 148.482,-48.787 97.52,-88.053 "/>
<polygon points="113.929,-100.699 148.483,-127.317 148.483,-145.442 90.402,-100.699 "/>
<line fill="none" x1="54.161" y1="-153.858" x2="896.051" y2="-153.858"/>
<line fill="none" x1="54.161" y1="-153.858" x2="896.051" y2="-153.858"/>
<line fill="none" x1="54.161" y1="-153.858" x2="896.051" y2="-153.858"/>
<line fill="none" x1="54.161" y1="-153.858" x2="896.051" y2="-153.858"/>
<line fill="none" x1="54.161" y1="-153.858" x2="896.051" y2="-153.858"/>
<line fill="none" x1="397.856" y1="347.893" x2="67.356" y2="-54.498"/>
<line fill="none" x1="397.856" y1="347.893" x2="67.356" y2="-54.498"/>
<line fill="none" x1="397.856" y1="347.893" x2="67.356" y2="-54.498"/>
<line fill="none" x1="397.856" y1="347.893" x2="67.356" y2="-54.498"/>
<line fill="none" x1="397.856" y1="347.893" x2="67.356" y2="-54.498"/>
<line fill="none" x1="366.068" y1="347.893" x2="35.568" y2="-54.498"/>
<line fill="none" x1="366.068" y1="347.893" x2="35.568" y2="-54.498"/>
<line fill="none" x1="366.068" y1="347.893" x2="35.568" y2="-54.498"/>
<line fill="none" x1="366.068" y1="347.893" x2="35.568" y2="-54.498"/>
<line fill="none" x1="366.068" y1="347.893" x2="35.568" y2="-54.498"/>
<line fill="none" x1="74.403" y1="95.229" x2="101.903" y2="925.351"/>
<line fill="none" x1="74.403" y1="95.229" x2="101.903" y2="925.351"/>
<line fill="none" x1="74.403" y1="95.229" x2="101.903" y2="925.351"/>
<line fill="none" x1="74.403" y1="95.229" x2="101.903" y2="925.351"/>
<line fill="none" x1="74.403" y1="95.229" x2="101.903" y2="925.351"/>
<polygon points="121.524,57.715 47.034,115.105 47.034,96.98 97.997,57.715 "/>
<polygon points="81.587,45.068 47.033,18.449 47.033,0.324 105.114,45.068 "/>
<line fill="none" x1="67.901" y1="307.117" x2="67.901" y2="-518.772"/>
<line fill="none" x1="67.901" y1="307.117" x2="67.901" y2="-518.772"/>
<line fill="none" x1="67.901" y1="307.117" x2="67.901" y2="-518.772"/>
<line fill="none" x1="67.901" y1="307.117" x2="67.901" y2="-518.772"/>
<line fill="none" x1="67.901" y1="307.117" x2="67.901" y2="-518.772"/>
<polygon points="74.491,57.391 0,0 0,18.125 50.964,57.391 "/>
<polygon points="34.554,70.037 0,96.656 0,114.781 58.081,70.037 "/>
<line fill="none" x1="26.366" y1="436.795" x2="26.366" y2="-389.095"/>
<line fill="none" x1="26.366" y1="436.795" x2="26.366" y2="-389.095"/>
<line fill="none" x1="26.366" y1="436.795" x2="26.366" y2="-389.095"/>
<line fill="none" x1="26.366" y1="436.795" x2="26.366" y2="-389.095"/>
<line fill="none" x1="26.366" y1="436.795" x2="26.366" y2="-389.095"/>
<line fill="none" x1="-6.422" y1="436.795" x2="-6.422" y2="-389.095"/>
<line fill="none" x1="-6.422" y1="436.795" x2="-6.422" y2="-389.095"/>
<line fill="none" x1="-6.422" y1="436.795" x2="-6.422" y2="-389.095"/>
<line fill="none" x1="-6.422" y1="436.795" x2="-6.422" y2="-389.095"/>
<line fill="none" x1="-6.422" y1="436.795" x2="-6.422" y2="-389.095"/>
<line fill="none" x1="22.991" y1="881.027" x2="-10.509" y2="66.904"/>
<line fill="none" x1="22.991" y1="881.027" x2="-10.509" y2="66.904"/>
<line fill="none" x1="22.991" y1="881.027" x2="-10.509" y2="66.904"/>
<line fill="none" x1="22.991" y1="881.027" x2="-10.509" y2="66.904"/>
<line fill="none" x1="22.991" y1="881.027" x2="-10.509" y2="66.904"/>
<polygon points="510.755,-411.599 461.558,-437.616 461.558,-423.31 510.755,-397.291 "/>
<polygon points="536.048,-398.222 523.402,-404.91 523.402,-390.603 536.048,-383.915 610.539,-423.309 610.539,-437.616 "/>
<polygon points="536.048,-367.706 536.048,-367.706 461.558,-407.1 461.558,-392.792 536.048,-353.399 "/>
<polygon points="548.695,-374.394 548.695,-360.087 610.539,-392.792 610.539,-407.1 "/>
<line fill="none" x1="-20.25" y1="-462.032" x2="821.64" y2="-462.032"/>
<line fill="none" x1="-20.25" y1="-462.032" x2="821.64" y2="-462.032"/>
<line fill="none" x1="-20.25" y1="-462.032" x2="821.64" y2="-462.032"/>
<line fill="none" x1="-20.25" y1="-462.032" x2="821.64" y2="-462.032"/>
<line fill="none" x1="-20.25" y1="-462.032" x2="821.64" y2="-462.032"/>
<polygon points="525.54,-196.441 499.522,-147.244 513.829,-147.244 539.847,-196.441 "/>
<polygon points="538.917,-221.735 532.228,-209.088 546.536,-209.088 553.223,-221.735 513.829,-296.225 499.522,-296.225 "/>
<polygon points="569.432,-221.735 569.432,-221.735 530.039,-147.244 544.346,-147.244 583.74,-221.735 "/>
<polygon points="562.745,-234.381 577.051,-234.381 544.346,-296.225 530.039,-296.225 "/>
<line fill="none" x1="475.106" y1="334.563" x2="475.106" y2="-507.327"/>
<line fill="none" x1="475.106" y1="334.563" x2="475.106" y2="-507.327"/>
<line fill="none" x1="475.106" y1="334.563" x2="475.106" y2="-507.327"/>
<line fill="none" x1="475.106" y1="334.563" x2="475.106" y2="-507.327"/>
<line fill="none" x1="475.106" y1="334.563" x2="475.106" y2="-507.327"/>
</svg>
