<?xml version="1.0" encoding="utf-8"?>
<!-- Generator: Adobe Illustrator 16.0.0, SVG Export Plug-In . SVG Version: 6.00 Build 0)  -->
<!DOCTYPE svg PUBLIC "-//W3C//DTD SVG 1.1//EN" "http://www.w3.org/Graphics/SVG/1.1/DTD/svg11.dtd">
<svg version="1.1" id="Réteg_1" xmlns="http://www.w3.org/2000/svg" xmlns:xlink="http://www.w3.org/1999/xlink" x="0px" y="0px"
	 width="148.483px" height="115.054px" viewBox="0 0 148.483 115.054" enable-background="new 0 0 148.483 115.054"
	 xml:space="preserve">
<polygon points="186.401,-394.61 111.911,-452 111.911,-433.876 162.875,-394.61 "/>
<polygon points="146.465,-381.964 111.911,-355.346 111.911,-337.221 169.992,-381.964 "/>
<polygon points="0.582,-394.61 75.072,-337.22 75.072,-355.344 24.109,-394.61 "/>
<polygon points="40.519,-407.257 75.073,-433.875 75.073,-452 16.992,-407.257 "/>
<path d="M610.539-390.972v14.307l-74.49,39.394v-14.307L610.539-390.972z M523.402-358.266l-61.844-32.706v14.307l61.844,32.706
	V-358.266z M510.755-425.982L461.558-452v14.306l49.197,26.019V-425.982z M536.048-412.605l-12.646-6.688v14.307l12.646,6.688
	l74.49-39.394V-452L536.048-412.605z M536.048-382.09L536.048-382.09l-74.49-39.394v14.308l74.49,39.393V-382.09z M548.695-388.778
	v14.307l61.844-32.705v-14.308L548.695-388.778z"/>
<polygon points="320.754,-411.381 271.559,-452.627 271.559,-436.125 320.754,-394.877 "/>
<polygon points="346.049,-354.461 346.049,-354.461 271.559,-416.914 271.559,-400.411 346.049,-337.957 "/>
<polygon points="346.049,-390.174 333.402,-400.778 333.402,-384.274 346.049,-373.67 420.539,-436.124 420.539,-452.628 "/>
<polygon points="358.696,-348.561 420.539,-400.411 420.539,-416.915 358.696,-365.064 "/>
<g>
	<defs>
		<line id="SVGID_1_" x1="-20.25" y1="-476.416" x2="821.64" y2="-476.416"/>
	</defs>
	<clipPath id="SVGID_2_">
		<use xlink:href="#SVGID_1_"  overflow="visible"/>
	</clipPath>
</g>
<g>
	<defs>
		<line id="SVGID_3_" x1="-20.25" y1="-476.416" x2="821.64" y2="-476.416"/>
	</defs>
	<clipPath id="SVGID_4_">
		<use xlink:href="#SVGID_3_"  overflow="visible"/>
	</clipPath>
</g>
<g>
	<defs>
		<line id="SVGID_5_" x1="-20.25" y1="-476.416" x2="821.64" y2="-476.416"/>
	</defs>
	<clipPath id="SVGID_6_">
		<use xlink:href="#SVGID_5_"  overflow="visible"/>
	</clipPath>
</g>
<g>
	<defs>
		<line id="SVGID_7_" x1="-20.25" y1="-476.416" x2="821.64" y2="-476.416"/>
	</defs>
	<clipPath id="SVGID_8_">
		<use xlink:href="#SVGID_7_"  overflow="visible"/>
	</clipPath>
</g>
<g>
	<defs>
		<line id="SVGID_9_" x1="-20.25" y1="-476.416" x2="821.64" y2="-476.416"/>
	</defs>
	<clipPath id="SVGID_10_">
		<use xlink:href="#SVGID_9_"  overflow="visible"/>
	</clipPath>
</g>
<polygon points="57.972,-190.265 0.582,-115.775 18.706,-115.775 57.972,-166.738 "/>
<polygon points="70.618,-150.328 97.237,-115.774 115.362,-115.774 70.618,-173.855 "/>
<line fill="none" x1="111.278" y1="-215.329" x2="111.278" y2="626.56"/>
<line fill="none" x1="111.278" y1="-215.329" x2="111.278" y2="626.56"/>
<line fill="none" x1="111.278" y1="-215.329" x2="111.278" y2="626.56"/>
<line fill="none" x1="111.278" y1="-215.329" x2="111.278" y2="626.56"/>
<line fill="none" x1="111.278" y1="-215.329" x2="111.278" y2="626.56"/>
<polygon points="188.796,-190.265 246.187,-115.775 228.063,-115.775 188.796,-166.738 "/>
<polygon points="176.15,-150.328 149.531,-115.774 131.406,-115.774 176.15,-173.855 "/>
<line fill="none" x1="72.491" y1="-215.329" x2="72.491" y2="626.56"/>
<line fill="none" x1="72.491" y1="-215.329" x2="72.491" y2="626.56"/>
<line fill="none" x1="72.491" y1="-215.329" x2="72.491" y2="626.56"/>
<line fill="none" x1="72.491" y1="-215.329" x2="72.491" y2="626.56"/>
<line fill="none" x1="72.491" y1="-215.329" x2="72.491" y2="626.56"/>
<polygon points="0.08,-264.61 74.57,-322 74.57,-303.876 23.606,-264.61 "/>
<polygon points="40.016,-251.964 74.57,-225.346 74.57,-207.221 16.489,-251.964 "/>
<polygon points="185.899,-264.61 111.409,-207.22 111.409,-225.344 162.372,-264.61 "/>
<polygon points="145.962,-277.257 111.408,-303.875 111.408,-322 169.489,-277.257 "/>
<polygon points="57.47,-20.038 0.08,-94.528 18.204,-94.528 57.47,-43.565 "/>
<polygon points="70.116,-59.976 96.735,-94.529 114.86,-94.529 70.116,-36.448 "/>
<line fill="none" x1="138.276" y1="-15.207" x2="138.276" y2="-841.097"/>
<line fill="none" x1="138.276" y1="-15.207" x2="138.276" y2="-841.097"/>
<line fill="none" x1="138.276" y1="-15.207" x2="138.276" y2="-841.097"/>
<line fill="none" x1="138.276" y1="-15.207" x2="138.276" y2="-841.097"/>
<line fill="none" x1="138.276" y1="-15.207" x2="138.276" y2="-841.097"/>
<polygon points="188.294,-20.038 245.685,-94.528 227.561,-94.528 188.294,-43.565 "/>
<polygon points="175.648,-59.976 149.029,-94.529 130.904,-94.529 175.648,-36.448 "/>
<line fill="none" x1="105.488" y1="-15.207" x2="105.488" y2="-841.097"/>
<line fill="none" x1="105.488" y1="-15.207" x2="105.488" y2="-841.097"/>
<line fill="none" x1="105.488" y1="-15.207" x2="105.488" y2="-841.097"/>
<line fill="none" x1="105.488" y1="-15.207" x2="105.488" y2="-841.097"/>
<line fill="none" x1="105.488" y1="-15.207" x2="105.488" y2="-841.097"/>
<polygon points="74.57,57.664 0.08,0.274 0.08,18.397 51.044,57.664 "/>
<polygon points="34.634,70.311 0.08,96.929 0.08,115.054 58.161,70.311 "/>
<line fill="none" x1="-6.054" y1="464.835" x2="-6.054" y2="-377.055"/>
<line fill="none" x1="-6.054" y1="464.835" x2="-6.054" y2="-377.055"/>
<line fill="none" x1="-6.054" y1="464.835" x2="-6.054" y2="-377.055"/>
<line fill="none" x1="-6.054" y1="464.835" x2="-6.054" y2="-377.055"/>
<line fill="none" x1="-6.054" y1="464.835" x2="-6.054" y2="-377.055"/>
<line fill="none" x1="-5.342" y1="453.067" x2="-5.342" y2="-388.822"/>
<line fill="none" x1="-5.342" y1="453.067" x2="-5.342" y2="-388.822"/>
<line fill="none" x1="-5.342" y1="453.067" x2="-5.342" y2="-388.822"/>
<line fill="none" x1="-5.342" y1="453.067" x2="-5.342" y2="-388.822"/>
<line fill="none" x1="-5.342" y1="453.067" x2="-5.342" y2="-388.822"/>
<polygon points="73.993,57.39 148.482,114.78 148.482,96.655 97.52,57.39 "/>
<polygon points="113.929,44.743 148.483,18.125 148.483,0 90.402,44.743 "/>
<line fill="none" x1="54.161" y1="-8.416" x2="896.051" y2="-8.416"/>
<line fill="none" x1="54.161" y1="-8.416" x2="896.051" y2="-8.416"/>
<line fill="none" x1="54.161" y1="-8.416" x2="896.051" y2="-8.416"/>
<line fill="none" x1="54.161" y1="-8.416" x2="896.051" y2="-8.416"/>
<line fill="none" x1="54.161" y1="-8.416" x2="896.051" y2="-8.416"/>
<line fill="none" x1="397.856" y1="493.335" x2="67.356" y2="90.944"/>
<line fill="none" x1="397.856" y1="493.335" x2="67.356" y2="90.944"/>
<line fill="none" x1="397.856" y1="493.335" x2="67.356" y2="90.944"/>
<line fill="none" x1="397.856" y1="493.335" x2="67.356" y2="90.944"/>
<line fill="none" x1="397.856" y1="493.335" x2="67.356" y2="90.944"/>
<line fill="none" x1="366.068" y1="493.335" x2="35.568" y2="90.944"/>
<line fill="none" x1="366.068" y1="493.335" x2="35.568" y2="90.944"/>
<line fill="none" x1="366.068" y1="493.335" x2="35.568" y2="90.944"/>
<line fill="none" x1="366.068" y1="493.335" x2="35.568" y2="90.944"/>
<line fill="none" x1="366.068" y1="493.335" x2="35.568" y2="90.944"/>
<line fill="none" x1="74.403" y1="240.671" x2="101.903" y2="1070.793"/>
<line fill="none" x1="74.403" y1="240.671" x2="101.903" y2="1070.793"/>
<line fill="none" x1="74.403" y1="240.671" x2="101.903" y2="1070.793"/>
<line fill="none" x1="74.403" y1="240.671" x2="101.903" y2="1070.793"/>
<line fill="none" x1="74.403" y1="240.671" x2="101.903" y2="1070.793"/>
<polygon points="121.524,203.157 47.034,260.548 47.034,242.423 97.997,203.157 "/>
<polygon points="81.587,190.511 47.033,163.892 47.033,145.767 105.114,190.511 "/>
<line fill="none" x1="67.901" y1="452.56" x2="67.901" y2="-373.33"/>
<line fill="none" x1="67.901" y1="452.56" x2="67.901" y2="-373.33"/>
<line fill="none" x1="67.901" y1="452.56" x2="67.901" y2="-373.33"/>
<line fill="none" x1="67.901" y1="452.56" x2="67.901" y2="-373.33"/>
<line fill="none" x1="67.901" y1="452.56" x2="67.901" y2="-373.33"/>
<polygon points="74.491,202.833 0,145.442 0,163.567 50.964,202.833 "/>
<polygon points="34.554,215.479 0,242.099 0,260.224 58.081,215.479 "/>
<line fill="none" x1="26.366" y1="582.237" x2="26.366" y2="-243.653"/>
<line fill="none" x1="26.366" y1="582.237" x2="26.366" y2="-243.653"/>
<line fill="none" x1="26.366" y1="582.237" x2="26.366" y2="-243.653"/>
<line fill="none" x1="26.366" y1="582.237" x2="26.366" y2="-243.653"/>
<line fill="none" x1="26.366" y1="582.237" x2="26.366" y2="-243.653"/>
<line fill="none" x1="-6.422" y1="582.237" x2="-6.422" y2="-243.653"/>
<line fill="none" x1="-6.422" y1="582.237" x2="-6.422" y2="-243.653"/>
<line fill="none" x1="-6.422" y1="582.237" x2="-6.422" y2="-243.653"/>
<line fill="none" x1="-6.422" y1="582.237" x2="-6.422" y2="-243.653"/>
<line fill="none" x1="-6.422" y1="582.237" x2="-6.422" y2="-243.653"/>
<line fill="none" x1="22.991" y1="1026.47" x2="-10.509" y2="212.347"/>
<line fill="none" x1="22.991" y1="1026.47" x2="-10.509" y2="212.347"/>
<line fill="none" x1="22.991" y1="1026.47" x2="-10.509" y2="212.347"/>
<line fill="none" x1="22.991" y1="1026.47" x2="-10.509" y2="212.347"/>
<line fill="none" x1="22.991" y1="1026.47" x2="-10.509" y2="212.347"/>
<polygon points="510.755,-266.156 461.558,-292.173 461.558,-277.868 510.755,-251.849 "/>
<polygon points="536.048,-252.779 523.402,-259.468 523.402,-245.161 536.048,-238.473 610.539,-277.867 610.539,-292.173 "/>
<polygon points="536.048,-222.264 536.048,-222.264 461.558,-261.658 461.558,-247.35 536.048,-207.957 "/>
<polygon points="548.695,-228.952 548.695,-214.645 610.539,-247.35 610.539,-261.658 "/>
<line fill="none" x1="-20.25" y1="-316.59" x2="821.64" y2="-316.59"/>
<line fill="none" x1="-20.25" y1="-316.59" x2="821.64" y2="-316.59"/>
<line fill="none" x1="-20.25" y1="-316.59" x2="821.64" y2="-316.59"/>
<line fill="none" x1="-20.25" y1="-316.59" x2="821.64" y2="-316.59"/>
<line fill="none" x1="-20.25" y1="-316.59" x2="821.64" y2="-316.59"/>
<polygon points="525.54,-50.999 499.522,-1.802 513.829,-1.802 539.847,-50.999 "/>
<polygon points="538.917,-76.292 532.228,-63.646 546.536,-63.646 553.223,-76.292 513.829,-150.783 499.522,-150.783 "/>
<polygon points="569.432,-76.292 569.432,-76.292 530.039,-1.802 544.346,-1.802 583.74,-76.292 "/>
<polygon points="562.745,-88.939 577.051,-88.939 544.346,-150.783 530.039,-150.783 "/>
<line fill="none" x1="475.106" y1="480.005" x2="475.106" y2="-361.884"/>
<line fill="none" x1="475.106" y1="480.005" x2="475.106" y2="-361.884"/>
<line fill="none" x1="475.106" y1="480.005" x2="475.106" y2="-361.884"/>
<line fill="none" x1="475.106" y1="480.005" x2="475.106" y2="-361.884"/>
<line fill="none" x1="475.106" y1="480.005" x2="475.106" y2="-361.884"/>
</svg>
