<?xml version="1.0" encoding="utf-8"?>
<!-- Generator: Adobe Illustrator 16.0.0, SVG Export Plug-In . SVG Version: 6.00 Build 0)  -->
<!DOCTYPE svg PUBLIC "-//W3C//DTD SVG 1.1//EN" "http://www.w3.org/Graphics/SVG/1.1/DTD/svg11.dtd">
<svg version="1.1" id="Réteg_1" xmlns="http://www.w3.org/2000/svg" xmlns:xlink="http://www.w3.org/1999/xlink" x="0px" y="0px"
	 width="148.98px" height="84.217px" viewBox="0 0 148.98 84.217" enable-background="new 0 0 148.98 84.217" xml:space="preserve">
<polygon points="-275.157,-102.437 -349.647,-159.827 -349.647,-141.703 -298.683,-102.437 "/>
<polygon points="-315.093,-89.791 -349.647,-63.172 -349.647,-45.047 -291.566,-89.791 "/>
<polygon points="-460.976,-102.437 -386.486,-45.047 -386.486,-63.171 -437.449,-102.437 "/>
<polygon points="-421.04,-115.083 -386.485,-141.702 -386.485,-159.827 -444.566,-115.083 "/>
<path d="M148.98-98.798v14.307L74.49-45.097v-14.307L148.98-98.798z M61.844-66.092L0-98.798v14.307l61.844,32.706V-66.092z
	 M49.197-133.809L0-159.826v14.306l49.197,26.019V-133.809z M74.49-120.432l-12.646-6.688v14.307l12.646,6.688l74.49-39.394v-14.307
	L74.49-120.432z M74.49-89.917L74.49-89.917L0-129.311v14.308l74.49,39.393V-89.917z M87.137-96.604v14.307l61.844-32.705v-14.308
	L87.137-96.604z"/>
<polygon points="-140.804,-119.208 -189.999,-160.454 -189.999,-143.951 -140.804,-102.704 "/>
<polygon points="-115.509,-62.288 -115.509,-62.288 -189.999,-124.74 -189.999,-108.237 -115.509,-45.783 "/>
<polygon points="-115.509,-98.001 -128.156,-108.605 -128.156,-92.101 -115.509,-81.497 -41.02,-143.951 -41.02,-160.455 "/>
<polygon points="-102.862,-56.387 -41.02,-108.237 -41.02,-124.741 -102.862,-72.891 "/>
<g>
	<defs>
		<line id="SVGID_1_" x1="-481.808" y1="-184.243" x2="360.082" y2="-184.243"/>
	</defs>
	<clipPath id="SVGID_2_">
		<use xlink:href="#SVGID_1_"  overflow="visible"/>
	</clipPath>
</g>
<g>
	<defs>
		<line id="SVGID_3_" x1="-481.808" y1="-184.243" x2="360.082" y2="-184.243"/>
	</defs>
	<clipPath id="SVGID_4_">
		<use xlink:href="#SVGID_3_"  overflow="visible"/>
	</clipPath>
</g>
<g>
	<defs>
		<line id="SVGID_5_" x1="-481.808" y1="-184.243" x2="360.082" y2="-184.243"/>
	</defs>
	<clipPath id="SVGID_6_">
		<use xlink:href="#SVGID_5_"  overflow="visible"/>
	</clipPath>
</g>
<g>
	<defs>
		<line id="SVGID_7_" x1="-481.808" y1="-184.243" x2="360.082" y2="-184.243"/>
	</defs>
	<clipPath id="SVGID_8_">
		<use xlink:href="#SVGID_7_"  overflow="visible"/>
	</clipPath>
</g>
<g>
	<defs>
		<line id="SVGID_9_" x1="-481.808" y1="-184.243" x2="360.082" y2="-184.243"/>
	</defs>
	<clipPath id="SVGID_10_">
		<use xlink:href="#SVGID_9_"  overflow="visible"/>
	</clipPath>
</g>
<polygon points="-403.586,101.909 -460.976,176.398 -442.852,176.398 -403.586,125.436 "/>
<polygon points="-390.94,141.845 -364.321,176.399 -346.196,176.399 -390.94,118.318 "/>
<line fill="none" x1="-350.28" y1="76.844" x2="-350.28" y2="918.733"/>
<line fill="none" x1="-350.28" y1="76.844" x2="-350.28" y2="918.733"/>
<line fill="none" x1="-350.28" y1="76.844" x2="-350.28" y2="918.733"/>
<line fill="none" x1="-350.28" y1="76.844" x2="-350.28" y2="918.733"/>
<line fill="none" x1="-350.28" y1="76.844" x2="-350.28" y2="918.733"/>
<polygon points="-272.762,101.909 -215.372,176.398 -233.496,176.398 -272.762,125.436 "/>
<polygon points="-285.408,141.845 -312.027,176.399 -330.152,176.399 -285.408,118.318 "/>
<line fill="none" x1="-389.067" y1="76.844" x2="-389.067" y2="918.733"/>
<line fill="none" x1="-389.067" y1="76.844" x2="-389.067" y2="918.733"/>
<line fill="none" x1="-389.067" y1="76.844" x2="-389.067" y2="918.733"/>
<line fill="none" x1="-389.067" y1="76.844" x2="-389.067" y2="918.733"/>
<line fill="none" x1="-389.067" y1="76.844" x2="-389.067" y2="918.733"/>
<polygon points="-461.478,27.563 -386.988,-29.827 -386.988,-11.703 -437.952,27.563 "/>
<polygon points="-421.542,40.209 -386.988,66.828 -386.988,84.953 -445.069,40.209 "/>
<polygon points="-275.659,27.563 -350.149,84.953 -350.149,66.829 -299.186,27.563 "/>
<polygon points="-315.596,14.917 -350.15,-11.702 -350.15,-29.827 -292.069,14.917 "/>
<polygon points="-404.088,272.135 -461.478,197.645 -443.354,197.645 -404.088,248.608 "/>
<polygon points="-391.442,232.198 -364.823,197.644 -346.698,197.644 -391.442,255.725 "/>
<line fill="none" x1="-323.282" y1="276.966" x2="-323.282" y2="-548.923"/>
<line fill="none" x1="-323.282" y1="276.966" x2="-323.282" y2="-548.923"/>
<line fill="none" x1="-323.282" y1="276.966" x2="-323.282" y2="-548.923"/>
<line fill="none" x1="-323.282" y1="276.966" x2="-323.282" y2="-548.923"/>
<line fill="none" x1="-323.282" y1="276.966" x2="-323.282" y2="-548.923"/>
<polygon points="-273.264,272.135 -215.874,197.645 -233.998,197.645 -273.264,248.608 "/>
<polygon points="-285.91,232.198 -312.529,197.644 -330.654,197.644 -285.91,255.725 "/>
<line fill="none" x1="-356.07" y1="276.966" x2="-356.07" y2="-548.923"/>
<line fill="none" x1="-356.07" y1="276.966" x2="-356.07" y2="-548.923"/>
<line fill="none" x1="-356.07" y1="276.966" x2="-356.07" y2="-548.923"/>
<line fill="none" x1="-356.07" y1="276.966" x2="-356.07" y2="-548.923"/>
<line fill="none" x1="-356.07" y1="276.966" x2="-356.07" y2="-548.923"/>
<polygon points="-386.988,349.837 -461.478,292.448 -461.478,310.571 -410.514,349.837 "/>
<polygon points="-426.924,362.484 -461.478,389.102 -461.478,407.227 -403.397,362.484 "/>
<line fill="none" x1="-467.612" y1="757.008" x2="-467.612" y2="-84.882"/>
<line fill="none" x1="-467.612" y1="757.008" x2="-467.612" y2="-84.882"/>
<line fill="none" x1="-467.612" y1="757.008" x2="-467.612" y2="-84.882"/>
<line fill="none" x1="-467.612" y1="757.008" x2="-467.612" y2="-84.882"/>
<line fill="none" x1="-467.612" y1="757.008" x2="-467.612" y2="-84.882"/>
<line fill="none" x1="-466.9" y1="745.241" x2="-466.9" y2="-96.649"/>
<line fill="none" x1="-466.9" y1="745.241" x2="-466.9" y2="-96.649"/>
<line fill="none" x1="-466.9" y1="745.241" x2="-466.9" y2="-96.649"/>
<line fill="none" x1="-466.9" y1="745.241" x2="-466.9" y2="-96.649"/>
<line fill="none" x1="-466.9" y1="745.241" x2="-466.9" y2="-96.649"/>
<polygon points="-387.565,349.563 -313.076,406.954 -313.076,388.829 -364.039,349.563 "/>
<polygon points="-347.629,336.917 -313.075,310.298 -313.075,292.173 -371.156,336.917 "/>
<line fill="none" x1="-407.397" y1="283.757" x2="434.493" y2="283.757"/>
<line fill="none" x1="-407.397" y1="283.757" x2="434.493" y2="283.757"/>
<line fill="none" x1="-407.397" y1="283.757" x2="434.493" y2="283.757"/>
<line fill="none" x1="-407.397" y1="283.757" x2="434.493" y2="283.757"/>
<line fill="none" x1="-407.397" y1="283.757" x2="434.493" y2="283.757"/>
<line fill="none" x1="-63.702" y1="785.508" x2="-394.202" y2="383.118"/>
<line fill="none" x1="-63.702" y1="785.508" x2="-394.202" y2="383.118"/>
<line fill="none" x1="-63.702" y1="785.508" x2="-394.202" y2="383.118"/>
<line fill="none" x1="-63.702" y1="785.508" x2="-394.202" y2="383.118"/>
<line fill="none" x1="-63.702" y1="785.508" x2="-394.202" y2="383.118"/>
<line fill="none" x1="-95.49" y1="785.508" x2="-425.99" y2="383.118"/>
<line fill="none" x1="-95.49" y1="785.508" x2="-425.99" y2="383.118"/>
<line fill="none" x1="-95.49" y1="785.508" x2="-425.99" y2="383.118"/>
<line fill="none" x1="-95.49" y1="785.508" x2="-425.99" y2="383.118"/>
<line fill="none" x1="-95.49" y1="785.508" x2="-425.99" y2="383.118"/>
<line fill="none" x1="-387.155" y1="532.844" x2="-359.655" y2="1362.966"/>
<line fill="none" x1="-387.155" y1="532.844" x2="-359.655" y2="1362.966"/>
<line fill="none" x1="-387.155" y1="532.844" x2="-359.655" y2="1362.966"/>
<line fill="none" x1="-387.155" y1="532.844" x2="-359.655" y2="1362.966"/>
<line fill="none" x1="-387.155" y1="532.844" x2="-359.655" y2="1362.966"/>
<polygon points="-340.034,495.331 -414.524,552.721 -414.524,534.596 -363.562,495.331 "/>
<polygon points="-379.971,482.684 -414.525,456.065 -414.525,437.94 -356.444,482.684 "/>
<line fill="none" x1="-393.657" y1="744.733" x2="-393.657" y2="-81.156"/>
<line fill="none" x1="-393.657" y1="744.733" x2="-393.657" y2="-81.156"/>
<line fill="none" x1="-393.657" y1="744.733" x2="-393.657" y2="-81.156"/>
<line fill="none" x1="-393.657" y1="744.733" x2="-393.657" y2="-81.156"/>
<line fill="none" x1="-393.657" y1="744.733" x2="-393.657" y2="-81.156"/>
<polygon points="-387.067,495.006 -461.558,437.616 -461.558,455.741 -410.594,495.006 "/>
<polygon points="-427.004,507.653 -461.558,534.272 -461.558,552.397 -403.478,507.653 "/>
<line fill="none" x1="-435.192" y1="874.411" x2="-435.192" y2="48.521"/>
<line fill="none" x1="-435.192" y1="874.411" x2="-435.192" y2="48.521"/>
<line fill="none" x1="-435.192" y1="874.411" x2="-435.192" y2="48.521"/>
<line fill="none" x1="-435.192" y1="874.411" x2="-435.192" y2="48.521"/>
<line fill="none" x1="-435.192" y1="874.411" x2="-435.192" y2="48.521"/>
<line fill="none" x1="-467.98" y1="874.411" x2="-467.98" y2="48.521"/>
<line fill="none" x1="-467.98" y1="874.411" x2="-467.98" y2="48.521"/>
<line fill="none" x1="-467.98" y1="874.411" x2="-467.98" y2="48.521"/>
<line fill="none" x1="-467.98" y1="874.411" x2="-467.98" y2="48.521"/>
<line fill="none" x1="-467.98" y1="874.411" x2="-467.98" y2="48.521"/>
<line fill="none" x1="-438.567" y1="1318.643" x2="-472.067" y2="504.52"/>
<line fill="none" x1="-438.567" y1="1318.643" x2="-472.067" y2="504.52"/>
<line fill="none" x1="-438.567" y1="1318.643" x2="-472.067" y2="504.52"/>
<line fill="none" x1="-438.567" y1="1318.643" x2="-472.067" y2="504.52"/>
<line fill="none" x1="-438.567" y1="1318.643" x2="-472.067" y2="504.52"/>
<polygon points="49.197,26.017 0,0 0,14.306 49.197,40.325 "/>
<polygon points="74.49,39.394 61.844,32.706 61.844,47.013 74.49,53.701 148.98,14.307 148.98,0 "/>
<polygon points="74.49,69.91 74.49,69.91 0,30.516 0,44.824 74.49,84.217 "/>
<polygon points="87.137,63.222 87.137,77.529 148.98,44.824 148.98,30.516 "/>
<line fill="none" x1="-481.808" y1="-24.417" x2="360.082" y2="-24.417"/>
<line fill="none" x1="-481.808" y1="-24.417" x2="360.082" y2="-24.417"/>
<line fill="none" x1="-481.808" y1="-24.417" x2="360.082" y2="-24.417"/>
<line fill="none" x1="-481.808" y1="-24.417" x2="360.082" y2="-24.417"/>
<line fill="none" x1="-481.808" y1="-24.417" x2="360.082" y2="-24.417"/>
<polygon points="63.981,241.174 37.964,290.372 52.271,290.372 78.289,241.174 "/>
<polygon points="77.358,215.881 70.67,228.527 84.978,228.527 91.665,215.881 52.271,141.391 37.964,141.391 "/>
<polygon points="107.874,215.881 107.874,215.881 68.48,290.372 82.788,290.372 122.182,215.881 "/>
<polygon points="101.187,203.234 115.493,203.234 82.788,141.391 68.48,141.391 "/>
<line fill="none" x1="13.548" y1="772.178" x2="13.548" y2="-69.711"/>
<line fill="none" x1="13.548" y1="772.178" x2="13.548" y2="-69.711"/>
<line fill="none" x1="13.548" y1="772.178" x2="13.548" y2="-69.711"/>
<line fill="none" x1="13.548" y1="772.178" x2="13.548" y2="-69.711"/>
<line fill="none" x1="13.548" y1="772.178" x2="13.548" y2="-69.711"/>
</svg>
