<?xml version="1.0" encoding="utf-8"?>
<!-- Generator: Adobe Illustrator 16.0.0, SVG Export Plug-In . SVG Version: 6.00 Build 0)  -->
<!DOCTYPE svg PUBLIC "-//W3C//DTD SVG 1.1//EN" "http://www.w3.org/Graphics/SVG/1.1/DTD/svg11.dtd">
<svg version="1.1" id="Réteg_1" xmlns="http://www.w3.org/2000/svg" xmlns:xlink="http://www.w3.org/1999/xlink" x="0px" y="0px"
	 width="74.49px" height="114.78px" viewBox="0 0 74.49 114.78" enable-background="new 0 0 74.49 114.78" xml:space="preserve">
<polygon points="185.819,57.39 111.329,0 111.329,18.124 162.293,57.39 "/>
<polygon points="145.883,70.037 111.329,96.655 111.329,114.78 169.41,70.037 "/>
<polygon points="0,57.39 74.49,114.78 74.49,96.656 23.527,57.39 "/>
<polygon points="39.937,44.744 74.491,18.125 74.491,0 16.41,44.744 "/>
<path d="M609.957,61.029v14.307l-74.49,39.394v-14.307L609.957,61.029z M522.82,93.735l-61.844-32.706v14.307l61.844,32.706V93.735z
	 M510.173,26.018L460.976,0.001v14.306l49.197,26.019V26.018z M535.466,39.395l-12.646-6.688v14.307l12.646,6.688l74.49-39.394
	V0.001L535.466,39.395z M535.466,69.911L535.466,69.911l-74.49-39.394v14.308l74.49,39.393V69.911z M548.113,63.223V77.53
	l61.844-32.705V30.517L548.113,63.223z"/>
<polygon points="320.172,40.619 270.977,-0.627 270.977,15.876 320.172,57.123 "/>
<polygon points="345.467,97.54 345.467,97.54 270.977,35.087 270.977,51.59 345.467,114.044 "/>
<polygon points="345.467,61.826 332.82,51.222 332.82,67.726 345.467,78.33 419.957,15.876 419.957,-0.628 "/>
<polygon points="358.114,103.44 419.957,51.59 419.957,35.086 358.114,86.936 "/>
<g>
	<defs>
		<line id="SVGID_1_" x1="-20.832" y1="-24.416" x2="821.058" y2="-24.416"/>
	</defs>
	<clipPath id="SVGID_2_">
		<use xlink:href="#SVGID_1_"  overflow="visible"/>
	</clipPath>
</g>
<g>
	<defs>
		<line id="SVGID_3_" x1="-20.832" y1="-24.416" x2="821.058" y2="-24.416"/>
	</defs>
	<clipPath id="SVGID_4_">
		<use xlink:href="#SVGID_3_"  overflow="visible"/>
	</clipPath>
</g>
<g>
	<defs>
		<line id="SVGID_5_" x1="-20.832" y1="-24.416" x2="821.058" y2="-24.416"/>
	</defs>
	<clipPath id="SVGID_6_">
		<use xlink:href="#SVGID_5_"  overflow="visible"/>
	</clipPath>
</g>
<g>
	<defs>
		<line id="SVGID_7_" x1="-20.832" y1="-24.416" x2="821.058" y2="-24.416"/>
	</defs>
	<clipPath id="SVGID_8_">
		<use xlink:href="#SVGID_7_"  overflow="visible"/>
	</clipPath>
</g>
<g>
	<defs>
		<line id="SVGID_9_" x1="-20.832" y1="-24.416" x2="821.058" y2="-24.416"/>
	</defs>
	<clipPath id="SVGID_10_">
		<use xlink:href="#SVGID_9_"  overflow="visible"/>
	</clipPath>
</g>
<polygon points="57.39,261.736 0,336.226 18.124,336.226 57.39,285.263 "/>
<polygon points="70.036,301.672 96.655,336.227 114.78,336.227 70.036,278.146 "/>
<line fill="none" x1="110.696" y1="236.671" x2="110.696" y2="1078.56"/>
<line fill="none" x1="110.696" y1="236.671" x2="110.696" y2="1078.56"/>
<line fill="none" x1="110.696" y1="236.671" x2="110.696" y2="1078.56"/>
<line fill="none" x1="110.696" y1="236.671" x2="110.696" y2="1078.56"/>
<line fill="none" x1="110.696" y1="236.671" x2="110.696" y2="1078.56"/>
<polygon points="188.214,261.736 245.604,336.226 227.48,336.226 188.214,285.263 "/>
<polygon points="175.568,301.672 148.949,336.227 130.824,336.227 175.568,278.146 "/>
<line fill="none" x1="71.909" y1="236.671" x2="71.909" y2="1078.56"/>
<line fill="none" x1="71.909" y1="236.671" x2="71.909" y2="1078.56"/>
<line fill="none" x1="71.909" y1="236.671" x2="71.909" y2="1078.56"/>
<line fill="none" x1="71.909" y1="236.671" x2="71.909" y2="1078.56"/>
<line fill="none" x1="71.909" y1="236.671" x2="71.909" y2="1078.56"/>
<polygon points="-0.502,187.39 73.988,130 73.988,148.124 23.024,187.39 "/>
<polygon points="39.434,200.037 73.988,226.655 73.988,244.78 15.907,200.037 "/>
<polygon points="185.317,187.39 110.827,244.78 110.827,226.656 161.79,187.39 "/>
<polygon points="145.38,174.744 110.826,148.125 110.826,130 168.907,174.744 "/>
<polygon points="56.888,431.962 -0.502,357.472 17.622,357.472 56.888,408.435 "/>
<polygon points="69.534,392.025 96.153,357.471 114.278,357.471 69.534,415.552 "/>
<line fill="none" x1="137.694" y1="436.793" x2="137.694" y2="-389.096"/>
<line fill="none" x1="137.694" y1="436.793" x2="137.694" y2="-389.096"/>
<line fill="none" x1="137.694" y1="436.793" x2="137.694" y2="-389.096"/>
<line fill="none" x1="137.694" y1="436.793" x2="137.694" y2="-389.096"/>
<line fill="none" x1="137.694" y1="436.793" x2="137.694" y2="-389.096"/>
<polygon points="187.712,431.962 245.103,357.472 226.979,357.472 187.712,408.435 "/>
<polygon points="175.066,392.025 148.447,357.471 130.322,357.471 175.066,415.552 "/>
<line fill="none" x1="104.906" y1="436.793" x2="104.906" y2="-389.096"/>
<line fill="none" x1="104.906" y1="436.793" x2="104.906" y2="-389.096"/>
<line fill="none" x1="104.906" y1="436.793" x2="104.906" y2="-389.096"/>
<line fill="none" x1="104.906" y1="436.793" x2="104.906" y2="-389.096"/>
<line fill="none" x1="104.906" y1="436.793" x2="104.906" y2="-389.096"/>
<polygon points="73.988,509.665 -0.502,452.275 -0.502,470.398 50.462,509.665 "/>
<polygon points="34.052,522.311 -0.502,548.929 -0.502,567.054 57.579,522.311 "/>
<line fill="none" x1="-6.636" y1="916.835" x2="-6.636" y2="74.945"/>
<line fill="none" x1="-6.636" y1="916.835" x2="-6.636" y2="74.945"/>
<line fill="none" x1="-6.636" y1="916.835" x2="-6.636" y2="74.945"/>
<line fill="none" x1="-6.636" y1="916.835" x2="-6.636" y2="74.945"/>
<line fill="none" x1="-6.636" y1="916.835" x2="-6.636" y2="74.945"/>
<line fill="none" x1="-5.924" y1="905.068" x2="-5.924" y2="63.178"/>
<line fill="none" x1="-5.924" y1="905.068" x2="-5.924" y2="63.178"/>
<line fill="none" x1="-5.924" y1="905.068" x2="-5.924" y2="63.178"/>
<line fill="none" x1="-5.924" y1="905.068" x2="-5.924" y2="63.178"/>
<line fill="none" x1="-5.924" y1="905.068" x2="-5.924" y2="63.178"/>
<polygon points="73.411,509.39 147.9,566.781 147.9,548.656 96.938,509.39 "/>
<polygon points="113.347,496.744 147.901,470.125 147.901,452 89.82,496.744 "/>
<line fill="none" x1="53.579" y1="443.584" x2="895.469" y2="443.584"/>
<line fill="none" x1="53.579" y1="443.584" x2="895.469" y2="443.584"/>
<line fill="none" x1="53.579" y1="443.584" x2="895.469" y2="443.584"/>
<line fill="none" x1="53.579" y1="443.584" x2="895.469" y2="443.584"/>
<line fill="none" x1="53.579" y1="443.584" x2="895.469" y2="443.584"/>
<line fill="none" x1="397.274" y1="945.335" x2="66.774" y2="542.945"/>
<line fill="none" x1="397.274" y1="945.335" x2="66.774" y2="542.945"/>
<line fill="none" x1="397.274" y1="945.335" x2="66.774" y2="542.945"/>
<line fill="none" x1="397.274" y1="945.335" x2="66.774" y2="542.945"/>
<line fill="none" x1="397.274" y1="945.335" x2="66.774" y2="542.945"/>
<line fill="none" x1="365.486" y1="945.335" x2="34.986" y2="542.945"/>
<line fill="none" x1="365.486" y1="945.335" x2="34.986" y2="542.945"/>
<line fill="none" x1="365.486" y1="945.335" x2="34.986" y2="542.945"/>
<line fill="none" x1="365.486" y1="945.335" x2="34.986" y2="542.945"/>
<line fill="none" x1="365.486" y1="945.335" x2="34.986" y2="542.945"/>
<line fill="none" x1="73.821" y1="692.671" x2="101.321" y2="1522.793"/>
<line fill="none" x1="73.821" y1="692.671" x2="101.321" y2="1522.793"/>
<line fill="none" x1="73.821" y1="692.671" x2="101.321" y2="1522.793"/>
<line fill="none" x1="73.821" y1="692.671" x2="101.321" y2="1522.793"/>
<line fill="none" x1="73.821" y1="692.671" x2="101.321" y2="1522.793"/>
<polygon points="120.942,655.158 46.452,712.548 46.452,694.423 97.415,655.158 "/>
<polygon points="81.005,642.511 46.451,615.892 46.451,597.767 104.532,642.511 "/>
<line fill="none" x1="67.319" y1="904.56" x2="67.319" y2="78.671"/>
<line fill="none" x1="67.319" y1="904.56" x2="67.319" y2="78.671"/>
<line fill="none" x1="67.319" y1="904.56" x2="67.319" y2="78.671"/>
<line fill="none" x1="67.319" y1="904.56" x2="67.319" y2="78.671"/>
<line fill="none" x1="67.319" y1="904.56" x2="67.319" y2="78.671"/>
<polygon points="73.909,654.833 -0.582,597.443 -0.582,615.568 50.382,654.833 "/>
<polygon points="33.972,667.48 -0.582,694.099 -0.582,712.224 57.499,667.48 "/>
<line fill="none" x1="25.784" y1="1034.238" x2="25.784" y2="208.348"/>
<line fill="none" x1="25.784" y1="1034.238" x2="25.784" y2="208.348"/>
<line fill="none" x1="25.784" y1="1034.238" x2="25.784" y2="208.348"/>
<line fill="none" x1="25.784" y1="1034.238" x2="25.784" y2="208.348"/>
<line fill="none" x1="25.784" y1="1034.238" x2="25.784" y2="208.348"/>
<line fill="none" x1="-7.004" y1="1034.238" x2="-7.004" y2="208.348"/>
<line fill="none" x1="-7.004" y1="1034.238" x2="-7.004" y2="208.348"/>
<line fill="none" x1="-7.004" y1="1034.238" x2="-7.004" y2="208.348"/>
<line fill="none" x1="-7.004" y1="1034.238" x2="-7.004" y2="208.348"/>
<line fill="none" x1="-7.004" y1="1034.238" x2="-7.004" y2="208.348"/>
<line fill="none" x1="22.409" y1="1478.47" x2="-11.091" y2="664.347"/>
<line fill="none" x1="22.409" y1="1478.47" x2="-11.091" y2="664.347"/>
<line fill="none" x1="22.409" y1="1478.47" x2="-11.091" y2="664.347"/>
<line fill="none" x1="22.409" y1="1478.47" x2="-11.091" y2="664.347"/>
<line fill="none" x1="22.409" y1="1478.47" x2="-11.091" y2="664.347"/>
<polygon points="510.173,185.844 460.976,159.827 460.976,174.133 510.173,200.152 "/>
<polygon points="535.466,199.221 522.82,192.533 522.82,206.84 535.466,213.528 609.957,174.134 609.957,159.827 "/>
<polygon points="535.466,229.737 535.466,229.737 460.976,190.343 460.976,204.651 535.466,244.044 "/>
<polygon points="548.113,223.049 548.113,237.356 609.957,204.651 609.957,190.343 "/>
<line fill="none" x1="-20.832" y1="135.411" x2="821.058" y2="135.411"/>
<line fill="none" x1="-20.832" y1="135.411" x2="821.058" y2="135.411"/>
<line fill="none" x1="-20.832" y1="135.411" x2="821.058" y2="135.411"/>
<line fill="none" x1="-20.832" y1="135.411" x2="821.058" y2="135.411"/>
<line fill="none" x1="-20.832" y1="135.411" x2="821.058" y2="135.411"/>
<polygon points="524.958,401.001 498.94,450.199 513.247,450.199 539.265,401.001 "/>
<polygon points="538.334,375.708 531.646,388.354 545.954,388.354 552.641,375.708 513.247,301.218 498.94,301.218 "/>
<polygon points="568.85,375.708 568.85,375.708 529.457,450.199 543.764,450.199 583.158,375.708 "/>
<polygon points="562.163,363.062 576.469,363.062 543.764,301.218 529.457,301.218 "/>
<line fill="none" x1="474.524" y1="932.005" x2="474.524" y2="90.116"/>
<line fill="none" x1="474.524" y1="932.005" x2="474.524" y2="90.116"/>
<line fill="none" x1="474.524" y1="932.005" x2="474.524" y2="90.116"/>
<line fill="none" x1="474.524" y1="932.005" x2="474.524" y2="90.116"/>
<line fill="none" x1="474.524" y1="932.005" x2="474.524" y2="90.116"/>
</svg>
