<?xml version="1.0" encoding="utf-8"?>
<!-- Generator: Adobe Illustrator 16.0.0, SVG Export Plug-In . SVG Version: 6.00 Build 0)  -->
<!DOCTYPE svg PUBLIC "-//W3C//DTD SVG 1.1//EN" "http://www.w3.org/Graphics/SVG/1.1/DTD/svg11.dtd">
<svg version="1.1" id="Réteg_1" xmlns="http://www.w3.org/2000/svg" xmlns:xlink="http://www.w3.org/1999/xlink" x="0px" y="0px"
	 width="74.49px" height="114.78px" viewBox="0 0 74.49 114.78" enable-background="new 0 0 74.49 114.78" xml:space="preserve">
<polygon points="186.321,-72.61 111.831,-130 111.831,-111.876 162.795,-72.61 "/>
<polygon points="146.385,-59.963 111.831,-33.345 111.831,-15.22 169.912,-59.963 "/>
<polygon points="0.502,-72.61 74.992,-15.22 74.992,-33.344 24.029,-72.61 "/>
<polygon points="40.438,-85.256 74.993,-111.875 74.993,-130 16.912,-85.256 "/>
<path d="M610.458-68.971v14.307l-74.49,39.394v-14.307L610.458-68.971z M523.322-36.265l-61.844-32.706v14.307l61.844,32.706
	V-36.265z M510.675-103.982l-49.197-26.017v14.306l49.197,26.019V-103.982z M535.968-90.605l-12.646-6.688v14.307l12.646,6.688
	l74.49-39.394v-14.307L535.968-90.605z M535.968-60.089L535.968-60.089l-74.49-39.394v14.308l74.49,39.393V-60.089z M548.615-66.777
	v14.307l61.844-32.705v-14.308L548.615-66.777z"/>
<polygon points="320.674,-89.381 271.479,-130.627 271.479,-114.124 320.674,-72.877 "/>
<polygon points="345.969,-32.46 345.969,-32.46 271.479,-94.913 271.479,-78.41 345.969,-15.956 "/>
<polygon points="345.969,-68.174 333.322,-78.778 333.322,-62.274 345.969,-51.67 420.458,-114.124 420.458,-130.628 "/>
<polygon points="358.616,-26.56 420.458,-78.41 420.458,-94.914 358.616,-43.064 "/>
<g>
	<defs>
		<line id="SVGID_1_" x1="-20.33" y1="-154.416" x2="821.56" y2="-154.416"/>
	</defs>
	<clipPath id="SVGID_2_">
		<use xlink:href="#SVGID_1_"  overflow="visible"/>
	</clipPath>
</g>
<g>
	<defs>
		<line id="SVGID_3_" x1="-20.33" y1="-154.416" x2="821.56" y2="-154.416"/>
	</defs>
	<clipPath id="SVGID_4_">
		<use xlink:href="#SVGID_3_"  overflow="visible"/>
	</clipPath>
</g>
<g>
	<defs>
		<line id="SVGID_5_" x1="-20.33" y1="-154.416" x2="821.56" y2="-154.416"/>
	</defs>
	<clipPath id="SVGID_6_">
		<use xlink:href="#SVGID_5_"  overflow="visible"/>
	</clipPath>
</g>
<g>
	<defs>
		<line id="SVGID_7_" x1="-20.33" y1="-154.416" x2="821.56" y2="-154.416"/>
	</defs>
	<clipPath id="SVGID_8_">
		<use xlink:href="#SVGID_7_"  overflow="visible"/>
	</clipPath>
</g>
<g>
	<defs>
		<line id="SVGID_9_" x1="-20.33" y1="-154.416" x2="821.56" y2="-154.416"/>
	</defs>
	<clipPath id="SVGID_10_">
		<use xlink:href="#SVGID_9_"  overflow="visible"/>
	</clipPath>
</g>
<polygon points="57.892,131.736 0.502,206.226 18.626,206.226 57.892,155.263 "/>
<polygon points="70.538,171.672 97.157,206.227 115.282,206.227 70.538,148.146 "/>
<line fill="none" x1="111.198" y1="106.671" x2="111.198" y2="948.56"/>
<line fill="none" x1="111.198" y1="106.671" x2="111.198" y2="948.56"/>
<line fill="none" x1="111.198" y1="106.671" x2="111.198" y2="948.56"/>
<line fill="none" x1="111.198" y1="106.671" x2="111.198" y2="948.56"/>
<line fill="none" x1="111.198" y1="106.671" x2="111.198" y2="948.56"/>
<polygon points="188.716,131.736 246.106,206.226 227.982,206.226 188.716,155.263 "/>
<polygon points="176.07,171.672 149.451,206.227 131.326,206.227 176.07,148.146 "/>
<line fill="none" x1="72.411" y1="106.671" x2="72.411" y2="948.56"/>
<line fill="none" x1="72.411" y1="106.671" x2="72.411" y2="948.56"/>
<line fill="none" x1="72.411" y1="106.671" x2="72.411" y2="948.56"/>
<line fill="none" x1="72.411" y1="106.671" x2="72.411" y2="948.56"/>
<line fill="none" x1="72.411" y1="106.671" x2="72.411" y2="948.56"/>
<polygon points="0,57.39 74.49,0 74.49,18.124 23.526,57.39 "/>
<polygon points="39.936,70.037 74.49,96.655 74.49,114.78 16.409,70.037 "/>
<polygon points="185.819,57.39 111.329,114.78 111.329,96.656 162.292,57.39 "/>
<polygon points="145.882,44.744 111.328,18.125 111.328,0 169.409,44.744 "/>
<polygon points="57.39,301.962 0,227.472 18.124,227.472 57.39,278.435 "/>
<polygon points="70.036,262.025 96.655,227.471 114.78,227.471 70.036,285.552 "/>
<line fill="none" x1="138.196" y1="306.793" x2="138.196" y2="-519.096"/>
<line fill="none" x1="138.196" y1="306.793" x2="138.196" y2="-519.096"/>
<line fill="none" x1="138.196" y1="306.793" x2="138.196" y2="-519.096"/>
<line fill="none" x1="138.196" y1="306.793" x2="138.196" y2="-519.096"/>
<line fill="none" x1="138.196" y1="306.793" x2="138.196" y2="-519.096"/>
<polygon points="188.214,301.962 245.604,227.472 227.48,227.472 188.214,278.435 "/>
<polygon points="175.568,262.025 148.949,227.471 130.824,227.471 175.568,285.552 "/>
<line fill="none" x1="105.408" y1="306.793" x2="105.408" y2="-519.096"/>
<line fill="none" x1="105.408" y1="306.793" x2="105.408" y2="-519.096"/>
<line fill="none" x1="105.408" y1="306.793" x2="105.408" y2="-519.096"/>
<line fill="none" x1="105.408" y1="306.793" x2="105.408" y2="-519.096"/>
<line fill="none" x1="105.408" y1="306.793" x2="105.408" y2="-519.096"/>
<polygon points="74.49,379.665 0,322.275 0,340.398 50.964,379.665 "/>
<polygon points="34.554,392.311 0,418.929 0,437.054 58.081,392.311 "/>
<line fill="none" x1="-6.134" y1="786.835" x2="-6.134" y2="-55.055"/>
<line fill="none" x1="-6.134" y1="786.835" x2="-6.134" y2="-55.055"/>
<line fill="none" x1="-6.134" y1="786.835" x2="-6.134" y2="-55.055"/>
<line fill="none" x1="-6.134" y1="786.835" x2="-6.134" y2="-55.055"/>
<line fill="none" x1="-6.134" y1="786.835" x2="-6.134" y2="-55.055"/>
<line fill="none" x1="-5.422" y1="775.068" x2="-5.422" y2="-66.822"/>
<line fill="none" x1="-5.422" y1="775.068" x2="-5.422" y2="-66.822"/>
<line fill="none" x1="-5.422" y1="775.068" x2="-5.422" y2="-66.822"/>
<line fill="none" x1="-5.422" y1="775.068" x2="-5.422" y2="-66.822"/>
<line fill="none" x1="-5.422" y1="775.068" x2="-5.422" y2="-66.822"/>
<polygon points="73.913,379.39 148.402,436.781 148.402,418.656 97.439,379.39 "/>
<polygon points="113.849,366.744 148.403,340.125 148.403,322 90.322,366.744 "/>
<line fill="none" x1="54.081" y1="313.584" x2="895.971" y2="313.584"/>
<line fill="none" x1="54.081" y1="313.584" x2="895.971" y2="313.584"/>
<line fill="none" x1="54.081" y1="313.584" x2="895.971" y2="313.584"/>
<line fill="none" x1="54.081" y1="313.584" x2="895.971" y2="313.584"/>
<line fill="none" x1="54.081" y1="313.584" x2="895.971" y2="313.584"/>
<line fill="none" x1="397.776" y1="815.335" x2="67.276" y2="412.945"/>
<line fill="none" x1="397.776" y1="815.335" x2="67.276" y2="412.945"/>
<line fill="none" x1="397.776" y1="815.335" x2="67.276" y2="412.945"/>
<line fill="none" x1="397.776" y1="815.335" x2="67.276" y2="412.945"/>
<line fill="none" x1="397.776" y1="815.335" x2="67.276" y2="412.945"/>
<line fill="none" x1="365.988" y1="815.335" x2="35.488" y2="412.945"/>
<line fill="none" x1="365.988" y1="815.335" x2="35.488" y2="412.945"/>
<line fill="none" x1="365.988" y1="815.335" x2="35.488" y2="412.945"/>
<line fill="none" x1="365.988" y1="815.335" x2="35.488" y2="412.945"/>
<line fill="none" x1="365.988" y1="815.335" x2="35.488" y2="412.945"/>
<line fill="none" x1="74.323" y1="562.671" x2="101.823" y2="1392.793"/>
<line fill="none" x1="74.323" y1="562.671" x2="101.823" y2="1392.793"/>
<line fill="none" x1="74.323" y1="562.671" x2="101.823" y2="1392.793"/>
<line fill="none" x1="74.323" y1="562.671" x2="101.823" y2="1392.793"/>
<line fill="none" x1="74.323" y1="562.671" x2="101.823" y2="1392.793"/>
<polygon points="121.444,525.158 46.954,582.548 46.954,564.423 97.917,525.158 "/>
<polygon points="81.507,512.511 46.953,485.892 46.953,467.767 105.034,512.511 "/>
<line fill="none" x1="67.821" y1="774.56" x2="67.821" y2="-51.329"/>
<line fill="none" x1="67.821" y1="774.56" x2="67.821" y2="-51.329"/>
<line fill="none" x1="67.821" y1="774.56" x2="67.821" y2="-51.329"/>
<line fill="none" x1="67.821" y1="774.56" x2="67.821" y2="-51.329"/>
<line fill="none" x1="67.821" y1="774.56" x2="67.821" y2="-51.329"/>
<polygon points="74.411,524.833 -0.08,467.443 -0.08,485.568 50.884,524.833 "/>
<polygon points="34.474,537.48 -0.08,564.099 -0.08,582.224 58,537.48 "/>
<line fill="none" x1="26.286" y1="904.238" x2="26.286" y2="78.348"/>
<line fill="none" x1="26.286" y1="904.238" x2="26.286" y2="78.348"/>
<line fill="none" x1="26.286" y1="904.238" x2="26.286" y2="78.348"/>
<line fill="none" x1="26.286" y1="904.238" x2="26.286" y2="78.348"/>
<line fill="none" x1="26.286" y1="904.238" x2="26.286" y2="78.348"/>
<line fill="none" x1="-6.502" y1="904.238" x2="-6.502" y2="78.348"/>
<line fill="none" x1="-6.502" y1="904.238" x2="-6.502" y2="78.348"/>
<line fill="none" x1="-6.502" y1="904.238" x2="-6.502" y2="78.348"/>
<line fill="none" x1="-6.502" y1="904.238" x2="-6.502" y2="78.348"/>
<line fill="none" x1="-6.502" y1="904.238" x2="-6.502" y2="78.348"/>
<line fill="none" x1="22.911" y1="1348.47" x2="-10.589" y2="534.347"/>
<line fill="none" x1="22.911" y1="1348.47" x2="-10.589" y2="534.347"/>
<line fill="none" x1="22.911" y1="1348.47" x2="-10.589" y2="534.347"/>
<line fill="none" x1="22.911" y1="1348.47" x2="-10.589" y2="534.347"/>
<line fill="none" x1="22.911" y1="1348.47" x2="-10.589" y2="534.347"/>
<polygon points="510.675,55.844 461.478,29.827 461.478,44.133 510.675,70.152 "/>
<polygon points="535.968,69.221 523.322,62.533 523.322,76.84 535.968,83.528 610.458,44.134 610.458,29.827 "/>
<polygon points="535.968,99.737 535.968,99.737 461.478,60.343 461.478,74.651 535.968,114.044 "/>
<polygon points="548.615,93.049 548.615,107.356 610.458,74.651 610.458,60.343 "/>
<line fill="none" x1="-20.33" y1="5.411" x2="821.56" y2="5.411"/>
<line fill="none" x1="-20.33" y1="5.411" x2="821.56" y2="5.411"/>
<line fill="none" x1="-20.33" y1="5.411" x2="821.56" y2="5.411"/>
<line fill="none" x1="-20.33" y1="5.411" x2="821.56" y2="5.411"/>
<line fill="none" x1="-20.33" y1="5.411" x2="821.56" y2="5.411"/>
<polygon points="525.459,271.001 499.442,320.199 513.749,320.199 539.767,271.001 "/>
<polygon points="538.836,245.708 532.148,258.354 546.456,258.354 553.143,245.708 513.749,171.218 499.442,171.218 "/>
<polygon points="569.352,245.708 569.352,245.708 529.958,320.199 544.266,320.199 583.66,245.708 "/>
<polygon points="562.665,233.062 576.971,233.062 544.266,171.218 529.958,171.218 "/>
<line fill="none" x1="475.026" y1="802.005" x2="475.026" y2="-39.884"/>
<line fill="none" x1="475.026" y1="802.005" x2="475.026" y2="-39.884"/>
<line fill="none" x1="475.026" y1="802.005" x2="475.026" y2="-39.884"/>
<line fill="none" x1="475.026" y1="802.005" x2="475.026" y2="-39.884"/>
<line fill="none" x1="475.026" y1="802.005" x2="475.026" y2="-39.884"/>
</svg>
