<?xml version="1.0" encoding="utf-8"?>
<!-- Generator: Adobe Illustrator 16.0.0, SVG Export Plug-In . SVG Version: 6.00 Build 0)  -->
<!DOCTYPE svg PUBLIC "-//W3C//DTD SVG 1.1//EN" "http://www.w3.org/Graphics/SVG/1.1/DTD/svg11.dtd">
<svg version="1.1" id="Réteg_1" xmlns="http://www.w3.org/2000/svg" xmlns:xlink="http://www.w3.org/1999/xlink" x="0px" y="0px"
	 width="148.98px" height="114.729px" viewBox="0 0 148.98 114.729" enable-background="new 0 0 148.98 114.729"
	 xml:space="preserve">
<polygon points="-275.157,57.389 -349.647,-0.001 -349.647,18.123 -298.683,57.389 "/>
<polygon points="-315.093,70.036 -349.647,96.654 -349.647,114.779 -291.566,70.036 "/>
<polygon points="-460.976,57.389 -386.486,114.779 -386.486,96.655 -437.449,57.389 "/>
<polygon points="-421.04,44.743 -386.485,18.125 -386.485,0 -444.566,44.743 "/>
<path d="M148.98,61.028v14.307l-74.49,39.394v-14.307L148.98,61.028z M61.844,93.734L0,61.028v14.307l61.844,32.706V93.734z
	 M49.197,26.017L0,0v14.306l49.197,26.019V26.017z M74.49,39.394l-12.646-6.688v14.307l12.646,6.688l74.49-39.394V0L74.49,39.394z
	 M74.49,69.91L74.49,69.91L0,30.516v14.308l74.49,39.393V69.91z M87.137,63.222v14.307l61.844-32.705V30.516L87.137,63.222z"/>
<polygon points="-140.804,40.618 -189.999,-0.628 -189.999,15.875 -140.804,57.122 "/>
<polygon points="-115.509,97.539 -115.509,97.539 -189.999,35.086 -189.999,51.589 -115.509,114.043 "/>
<polygon points="-115.509,61.825 -128.156,51.221 -128.156,67.725 -115.509,78.329 -41.02,15.875 -41.02,-0.629 "/>
<polygon points="-102.862,103.439 -41.02,51.589 -41.02,35.085 -102.862,86.935 "/>
<g>
	<defs>
		<line id="SVGID_1_" x1="-481.808" y1="-24.417" x2="360.082" y2="-24.417"/>
	</defs>
	<clipPath id="SVGID_2_">
		<use xlink:href="#SVGID_1_"  overflow="visible"/>
	</clipPath>
</g>
<g>
	<defs>
		<line id="SVGID_3_" x1="-481.808" y1="-24.417" x2="360.082" y2="-24.417"/>
	</defs>
	<clipPath id="SVGID_4_">
		<use xlink:href="#SVGID_3_"  overflow="visible"/>
	</clipPath>
</g>
<g>
	<defs>
		<line id="SVGID_5_" x1="-481.808" y1="-24.417" x2="360.082" y2="-24.417"/>
	</defs>
	<clipPath id="SVGID_6_">
		<use xlink:href="#SVGID_5_"  overflow="visible"/>
	</clipPath>
</g>
<g>
	<defs>
		<line id="SVGID_7_" x1="-481.808" y1="-24.417" x2="360.082" y2="-24.417"/>
	</defs>
	<clipPath id="SVGID_8_">
		<use xlink:href="#SVGID_7_"  overflow="visible"/>
	</clipPath>
</g>
<g>
	<defs>
		<line id="SVGID_9_" x1="-481.808" y1="-24.417" x2="360.082" y2="-24.417"/>
	</defs>
	<clipPath id="SVGID_10_">
		<use xlink:href="#SVGID_9_"  overflow="visible"/>
	</clipPath>
</g>
<polygon points="-403.586,261.735 -460.976,336.225 -442.852,336.225 -403.586,285.262 "/>
<polygon points="-390.94,301.671 -364.321,336.226 -346.196,336.226 -390.94,278.145 "/>
<line fill="none" x1="-350.28" y1="236.67" x2="-350.28" y2="1078.559"/>
<line fill="none" x1="-350.28" y1="236.67" x2="-350.28" y2="1078.559"/>
<line fill="none" x1="-350.28" y1="236.67" x2="-350.28" y2="1078.559"/>
<line fill="none" x1="-350.28" y1="236.67" x2="-350.28" y2="1078.559"/>
<line fill="none" x1="-350.28" y1="236.67" x2="-350.28" y2="1078.559"/>
<polygon points="-272.762,261.735 -215.372,336.225 -233.496,336.225 -272.762,285.262 "/>
<polygon points="-285.408,301.671 -312.027,336.226 -330.152,336.226 -285.408,278.145 "/>
<line fill="none" x1="-389.067" y1="236.67" x2="-389.067" y2="1078.559"/>
<line fill="none" x1="-389.067" y1="236.67" x2="-389.067" y2="1078.559"/>
<line fill="none" x1="-389.067" y1="236.67" x2="-389.067" y2="1078.559"/>
<line fill="none" x1="-389.067" y1="236.67" x2="-389.067" y2="1078.559"/>
<line fill="none" x1="-389.067" y1="236.67" x2="-389.067" y2="1078.559"/>
<polygon points="-461.478,187.389 -386.988,129.999 -386.988,148.123 -437.952,187.389 "/>
<polygon points="-421.542,200.036 -386.988,226.654 -386.988,244.779 -445.069,200.036 "/>
<polygon points="-275.659,187.389 -350.149,244.779 -350.149,226.655 -299.186,187.389 "/>
<polygon points="-315.596,174.743 -350.15,148.125 -350.15,130 -292.069,174.743 "/>
<polygon points="-404.088,431.961 -461.478,357.471 -443.354,357.471 -404.088,408.434 "/>
<polygon points="-391.442,392.024 -364.823,357.47 -346.698,357.47 -391.442,415.551 "/>
<line fill="none" x1="-323.282" y1="436.792" x2="-323.282" y2="-389.097"/>
<line fill="none" x1="-323.282" y1="436.792" x2="-323.282" y2="-389.097"/>
<line fill="none" x1="-323.282" y1="436.792" x2="-323.282" y2="-389.097"/>
<line fill="none" x1="-323.282" y1="436.792" x2="-323.282" y2="-389.097"/>
<line fill="none" x1="-323.282" y1="436.792" x2="-323.282" y2="-389.097"/>
<polygon points="-273.264,431.961 -215.874,357.471 -233.998,357.471 -273.264,408.434 "/>
<polygon points="-285.91,392.024 -312.529,357.47 -330.654,357.47 -285.91,415.551 "/>
<line fill="none" x1="-356.07" y1="436.792" x2="-356.07" y2="-389.097"/>
<line fill="none" x1="-356.07" y1="436.792" x2="-356.07" y2="-389.097"/>
<line fill="none" x1="-356.07" y1="436.792" x2="-356.07" y2="-389.097"/>
<line fill="none" x1="-356.07" y1="436.792" x2="-356.07" y2="-389.097"/>
<line fill="none" x1="-356.07" y1="436.792" x2="-356.07" y2="-389.097"/>
<polygon points="-386.988,509.664 -461.478,452.274 -461.478,470.397 -410.514,509.664 "/>
<polygon points="-426.924,522.31 -461.478,548.928 -461.478,567.053 -403.397,522.31 "/>
<line fill="none" x1="-467.612" y1="916.834" x2="-467.612" y2="74.944"/>
<line fill="none" x1="-467.612" y1="916.834" x2="-467.612" y2="74.944"/>
<line fill="none" x1="-467.612" y1="916.834" x2="-467.612" y2="74.944"/>
<line fill="none" x1="-467.612" y1="916.834" x2="-467.612" y2="74.944"/>
<line fill="none" x1="-467.612" y1="916.834" x2="-467.612" y2="74.944"/>
<line fill="none" x1="-466.9" y1="905.067" x2="-466.9" y2="63.177"/>
<line fill="none" x1="-466.9" y1="905.067" x2="-466.9" y2="63.177"/>
<line fill="none" x1="-466.9" y1="905.067" x2="-466.9" y2="63.177"/>
<line fill="none" x1="-466.9" y1="905.067" x2="-466.9" y2="63.177"/>
<line fill="none" x1="-466.9" y1="905.067" x2="-466.9" y2="63.177"/>
<polygon points="-387.565,509.389 -313.076,566.78 -313.076,548.655 -364.039,509.389 "/>
<polygon points="-347.629,496.743 -313.075,470.125 -313.075,452 -371.156,496.743 "/>
<line fill="none" x1="-407.397" y1="443.583" x2="434.493" y2="443.583"/>
<line fill="none" x1="-407.397" y1="443.583" x2="434.493" y2="443.583"/>
<line fill="none" x1="-407.397" y1="443.583" x2="434.493" y2="443.583"/>
<line fill="none" x1="-407.397" y1="443.583" x2="434.493" y2="443.583"/>
<line fill="none" x1="-407.397" y1="443.583" x2="434.493" y2="443.583"/>
<line fill="none" x1="-63.702" y1="945.334" x2="-394.202" y2="542.944"/>
<line fill="none" x1="-63.702" y1="945.334" x2="-394.202" y2="542.944"/>
<line fill="none" x1="-63.702" y1="945.334" x2="-394.202" y2="542.944"/>
<line fill="none" x1="-63.702" y1="945.334" x2="-394.202" y2="542.944"/>
<line fill="none" x1="-63.702" y1="945.334" x2="-394.202" y2="542.944"/>
<line fill="none" x1="-95.49" y1="945.334" x2="-425.99" y2="542.944"/>
<line fill="none" x1="-95.49" y1="945.334" x2="-425.99" y2="542.944"/>
<line fill="none" x1="-95.49" y1="945.334" x2="-425.99" y2="542.944"/>
<line fill="none" x1="-95.49" y1="945.334" x2="-425.99" y2="542.944"/>
<line fill="none" x1="-95.49" y1="945.334" x2="-425.99" y2="542.944"/>
<line fill="none" x1="-387.155" y1="692.67" x2="-359.655" y2="1522.792"/>
<line fill="none" x1="-387.155" y1="692.67" x2="-359.655" y2="1522.792"/>
<line fill="none" x1="-387.155" y1="692.67" x2="-359.655" y2="1522.792"/>
<line fill="none" x1="-387.155" y1="692.67" x2="-359.655" y2="1522.792"/>
<line fill="none" x1="-387.155" y1="692.67" x2="-359.655" y2="1522.792"/>
<polygon points="-340.034,655.157 -414.524,712.547 -414.524,694.422 -363.562,655.157 "/>
<polygon points="-379.971,642.51 -414.525,615.891 -414.525,597.766 -356.444,642.51 "/>
<line fill="none" x1="-393.657" y1="904.559" x2="-393.657" y2="78.67"/>
<line fill="none" x1="-393.657" y1="904.559" x2="-393.657" y2="78.67"/>
<line fill="none" x1="-393.657" y1="904.559" x2="-393.657" y2="78.67"/>
<line fill="none" x1="-393.657" y1="904.559" x2="-393.657" y2="78.67"/>
<line fill="none" x1="-393.657" y1="904.559" x2="-393.657" y2="78.67"/>
<polygon points="-387.067,654.833 -461.558,597.442 -461.558,615.567 -410.594,654.833 "/>
<polygon points="-427.004,667.479 -461.558,694.098 -461.558,712.223 -403.478,667.479 "/>
<line fill="none" x1="-435.192" y1="1034.237" x2="-435.192" y2="208.347"/>
<line fill="none" x1="-435.192" y1="1034.237" x2="-435.192" y2="208.347"/>
<line fill="none" x1="-435.192" y1="1034.237" x2="-435.192" y2="208.347"/>
<line fill="none" x1="-435.192" y1="1034.237" x2="-435.192" y2="208.347"/>
<line fill="none" x1="-435.192" y1="1034.237" x2="-435.192" y2="208.347"/>
<line fill="none" x1="-467.98" y1="1034.237" x2="-467.98" y2="208.347"/>
<line fill="none" x1="-467.98" y1="1034.237" x2="-467.98" y2="208.347"/>
<line fill="none" x1="-467.98" y1="1034.237" x2="-467.98" y2="208.347"/>
<line fill="none" x1="-467.98" y1="1034.237" x2="-467.98" y2="208.347"/>
<line fill="none" x1="-467.98" y1="1034.237" x2="-467.98" y2="208.347"/>
<line fill="none" x1="-438.567" y1="1478.469" x2="-472.067" y2="664.346"/>
<line fill="none" x1="-438.567" y1="1478.469" x2="-472.067" y2="664.346"/>
<line fill="none" x1="-438.567" y1="1478.469" x2="-472.067" y2="664.346"/>
<line fill="none" x1="-438.567" y1="1478.469" x2="-472.067" y2="664.346"/>
<line fill="none" x1="-438.567" y1="1478.469" x2="-472.067" y2="664.346"/>
<polygon points="49.197,185.843 0,159.826 0,174.132 49.197,200.151 "/>
<polygon points="74.49,199.22 61.844,192.532 61.844,206.839 74.49,213.527 148.98,174.133 148.98,159.826 "/>
<polygon points="74.49,229.736 74.49,229.736 0,190.342 0,204.65 74.49,244.043 "/>
<polygon points="87.137,223.048 87.137,237.355 148.98,204.65 148.98,190.342 "/>
<line fill="none" x1="-481.808" y1="135.41" x2="360.082" y2="135.41"/>
<line fill="none" x1="-481.808" y1="135.41" x2="360.082" y2="135.41"/>
<line fill="none" x1="-481.808" y1="135.41" x2="360.082" y2="135.41"/>
<line fill="none" x1="-481.808" y1="135.41" x2="360.082" y2="135.41"/>
<line fill="none" x1="-481.808" y1="135.41" x2="360.082" y2="135.41"/>
<polygon points="63.981,401 37.964,450.198 52.271,450.198 78.289,401 "/>
<polygon points="77.358,375.707 70.67,388.354 84.978,388.354 91.665,375.707 52.271,301.217 37.964,301.217 "/>
<polygon points="107.874,375.707 107.874,375.707 68.48,450.198 82.788,450.198 122.182,375.707 "/>
<polygon points="101.187,363.061 115.493,363.061 82.788,301.217 68.48,301.217 "/>
<line fill="none" x1="13.548" y1="932.004" x2="13.548" y2="90.115"/>
<line fill="none" x1="13.548" y1="932.004" x2="13.548" y2="90.115"/>
<line fill="none" x1="13.548" y1="932.004" x2="13.548" y2="90.115"/>
<line fill="none" x1="13.548" y1="932.004" x2="13.548" y2="90.115"/>
<line fill="none" x1="13.548" y1="932.004" x2="13.548" y2="90.115"/>
</svg>
