<?xml version="1.0" encoding="utf-8"?>
<!-- Generator: Adobe Illustrator 16.0.0, SVG Export Plug-In . SVG Version: 6.00 Build 0)  -->
<!DOCTYPE svg PUBLIC "-//W3C//DTD SVG 1.1//EN" "http://www.w3.org/Graphics/SVG/1.1/DTD/svg11.dtd">
<svg version="1.1" id="Réteg_1" xmlns="http://www.w3.org/2000/svg" xmlns:xlink="http://www.w3.org/1999/xlink" x="0px" y="0px"
	 width="148.979px" height="114.672px" viewBox="0 0 148.979 114.672" enable-background="new 0 0 148.979 114.672"
	 xml:space="preserve">
<polygon points="-85.158,58.018 -159.648,0.628 -159.648,18.752 -108.684,58.018 "/>
<polygon points="-125.094,70.665 -159.648,97.283 -159.648,115.408 -101.567,70.665 "/>
<polygon points="-270.977,58.018 -196.487,115.408 -196.487,97.284 -247.45,58.018 "/>
<polygon points="-231.041,45.372 -196.486,18.753 -196.486,0.628 -254.567,45.372 "/>
<path d="M338.979,61.657v14.307l-74.49,39.394v-14.307L338.979,61.657z M251.843,94.363l-61.844-32.706v14.307l61.844,32.706V94.363
	z M239.196,26.646L189.999,0.629v14.306l49.197,26.019V26.646z M264.489,40.023l-12.646-6.688v14.307l12.646,6.688l74.49-39.394
	V0.629L264.489,40.023z M264.489,70.539L264.489,70.539l-74.49-39.394v14.308l74.49,39.393V70.539z M277.136,63.851v14.307
	l61.844-32.705V31.145L277.136,63.851z"/>
<polygon points="49.195,41.247 0,0.001 0,16.504 49.195,57.751 "/>
<polygon points="74.49,98.167 74.49,98.167 0,35.715 0,52.218 74.49,114.672 "/>
<polygon points="74.49,62.454 61.843,51.85 61.843,68.354 74.49,78.958 148.979,16.504 148.979,0 "/>
<polygon points="87.137,104.068 148.979,52.218 148.979,35.714 87.137,87.564 "/>
<g>
	<defs>
		<line id="SVGID_1_" x1="-291.809" y1="-23.788" x2="550.081" y2="-23.788"/>
	</defs>
	<clipPath id="SVGID_2_">
		<use xlink:href="#SVGID_1_"  overflow="visible"/>
	</clipPath>
</g>
<g>
	<defs>
		<line id="SVGID_3_" x1="-291.809" y1="-23.788" x2="550.081" y2="-23.788"/>
	</defs>
	<clipPath id="SVGID_4_">
		<use xlink:href="#SVGID_3_"  overflow="visible"/>
	</clipPath>
</g>
<g>
	<defs>
		<line id="SVGID_5_" x1="-291.809" y1="-23.788" x2="550.081" y2="-23.788"/>
	</defs>
	<clipPath id="SVGID_6_">
		<use xlink:href="#SVGID_5_"  overflow="visible"/>
	</clipPath>
</g>
<g>
	<defs>
		<line id="SVGID_7_" x1="-291.809" y1="-23.788" x2="550.081" y2="-23.788"/>
	</defs>
	<clipPath id="SVGID_8_">
		<use xlink:href="#SVGID_7_"  overflow="visible"/>
	</clipPath>
</g>
<g>
	<defs>
		<line id="SVGID_9_" x1="-291.809" y1="-23.788" x2="550.081" y2="-23.788"/>
	</defs>
	<clipPath id="SVGID_10_">
		<use xlink:href="#SVGID_9_"  overflow="visible"/>
	</clipPath>
</g>
<polygon points="-213.587,262.364 -270.977,336.854 -252.853,336.854 -213.587,285.891 "/>
<polygon points="-200.941,302.3 -174.322,336.854 -156.197,336.854 -200.941,278.773 "/>
<line fill="none" x1="-160.281" y1="237.299" x2="-160.281" y2="1079.188"/>
<line fill="none" x1="-160.281" y1="237.299" x2="-160.281" y2="1079.188"/>
<line fill="none" x1="-160.281" y1="237.299" x2="-160.281" y2="1079.188"/>
<line fill="none" x1="-160.281" y1="237.299" x2="-160.281" y2="1079.188"/>
<line fill="none" x1="-160.281" y1="237.299" x2="-160.281" y2="1079.188"/>
<polygon points="-82.763,262.364 -25.373,336.854 -43.497,336.854 -82.763,285.891 "/>
<polygon points="-95.409,302.3 -122.028,336.854 -140.153,336.854 -95.409,278.773 "/>
<line fill="none" x1="-199.068" y1="237.299" x2="-199.068" y2="1079.188"/>
<line fill="none" x1="-199.068" y1="237.299" x2="-199.068" y2="1079.188"/>
<line fill="none" x1="-199.068" y1="237.299" x2="-199.068" y2="1079.188"/>
<line fill="none" x1="-199.068" y1="237.299" x2="-199.068" y2="1079.188"/>
<line fill="none" x1="-199.068" y1="237.299" x2="-199.068" y2="1079.188"/>
<polygon points="-271.479,188.018 -196.989,130.628 -196.989,148.752 -247.953,188.018 "/>
<polygon points="-231.543,200.665 -196.989,227.283 -196.989,245.408 -255.07,200.665 "/>
<polygon points="-85.66,188.018 -160.15,245.408 -160.15,227.284 -109.187,188.018 "/>
<polygon points="-125.597,175.372 -160.151,148.753 -160.151,130.628 -102.07,175.372 "/>
<polygon points="-214.089,432.59 -271.479,358.1 -253.355,358.1 -214.089,409.063 "/>
<polygon points="-201.443,392.653 -174.824,358.099 -156.699,358.099 -201.443,416.18 "/>
<line fill="none" x1="-133.283" y1="437.421" x2="-133.283" y2="-388.468"/>
<line fill="none" x1="-133.283" y1="437.421" x2="-133.283" y2="-388.468"/>
<line fill="none" x1="-133.283" y1="437.421" x2="-133.283" y2="-388.468"/>
<line fill="none" x1="-133.283" y1="437.421" x2="-133.283" y2="-388.468"/>
<line fill="none" x1="-133.283" y1="437.421" x2="-133.283" y2="-388.468"/>
<polygon points="-83.265,432.59 -25.875,358.1 -43.999,358.1 -83.265,409.063 "/>
<polygon points="-95.911,392.653 -122.53,358.099 -140.655,358.099 -95.911,416.18 "/>
<line fill="none" x1="-166.071" y1="437.421" x2="-166.071" y2="-388.468"/>
<line fill="none" x1="-166.071" y1="437.421" x2="-166.071" y2="-388.468"/>
<line fill="none" x1="-166.071" y1="437.421" x2="-166.071" y2="-388.468"/>
<line fill="none" x1="-166.071" y1="437.421" x2="-166.071" y2="-388.468"/>
<line fill="none" x1="-166.071" y1="437.421" x2="-166.071" y2="-388.468"/>
<polygon points="-196.989,510.292 -271.479,452.903 -271.479,471.026 -220.515,510.292 "/>
<polygon points="-236.925,522.939 -271.479,549.557 -271.479,567.682 -213.398,522.939 "/>
<line fill="none" x1="-277.613" y1="917.463" x2="-277.613" y2="75.573"/>
<line fill="none" x1="-277.613" y1="917.463" x2="-277.613" y2="75.573"/>
<line fill="none" x1="-277.613" y1="917.463" x2="-277.613" y2="75.573"/>
<line fill="none" x1="-277.613" y1="917.463" x2="-277.613" y2="75.573"/>
<line fill="none" x1="-277.613" y1="917.463" x2="-277.613" y2="75.573"/>
<line fill="none" x1="-276.901" y1="905.696" x2="-276.901" y2="63.806"/>
<line fill="none" x1="-276.901" y1="905.696" x2="-276.901" y2="63.806"/>
<line fill="none" x1="-276.901" y1="905.696" x2="-276.901" y2="63.806"/>
<line fill="none" x1="-276.901" y1="905.696" x2="-276.901" y2="63.806"/>
<line fill="none" x1="-276.901" y1="905.696" x2="-276.901" y2="63.806"/>
<polygon points="-197.566,510.018 -123.077,567.409 -123.077,549.284 -174.04,510.018 "/>
<polygon points="-157.63,497.372 -123.076,470.753 -123.076,452.628 -181.157,497.372 "/>
<line fill="none" x1="-217.398" y1="444.212" x2="624.492" y2="444.212"/>
<line fill="none" x1="-217.398" y1="444.212" x2="624.492" y2="444.212"/>
<line fill="none" x1="-217.398" y1="444.212" x2="624.492" y2="444.212"/>
<line fill="none" x1="-217.398" y1="444.212" x2="624.492" y2="444.212"/>
<line fill="none" x1="-217.398" y1="444.212" x2="624.492" y2="444.212"/>
<line fill="none" x1="126.297" y1="945.963" x2="-204.203" y2="543.573"/>
<line fill="none" x1="126.297" y1="945.963" x2="-204.203" y2="543.573"/>
<line fill="none" x1="126.297" y1="945.963" x2="-204.203" y2="543.573"/>
<line fill="none" x1="126.297" y1="945.963" x2="-204.203" y2="543.573"/>
<line fill="none" x1="126.297" y1="945.963" x2="-204.203" y2="543.573"/>
<line fill="none" x1="94.509" y1="945.963" x2="-235.991" y2="543.573"/>
<line fill="none" x1="94.509" y1="945.963" x2="-235.991" y2="543.573"/>
<line fill="none" x1="94.509" y1="945.963" x2="-235.991" y2="543.573"/>
<line fill="none" x1="94.509" y1="945.963" x2="-235.991" y2="543.573"/>
<line fill="none" x1="94.509" y1="945.963" x2="-235.991" y2="543.573"/>
<line fill="none" x1="-197.156" y1="693.299" x2="-169.656" y2="1523.421"/>
<line fill="none" x1="-197.156" y1="693.299" x2="-169.656" y2="1523.421"/>
<line fill="none" x1="-197.156" y1="693.299" x2="-169.656" y2="1523.421"/>
<line fill="none" x1="-197.156" y1="693.299" x2="-169.656" y2="1523.421"/>
<line fill="none" x1="-197.156" y1="693.299" x2="-169.656" y2="1523.421"/>
<polygon points="-150.035,655.786 -224.525,713.176 -224.525,695.051 -173.563,655.786 "/>
<polygon points="-189.972,643.139 -224.526,616.52 -224.526,598.395 -166.445,643.139 "/>
<line fill="none" x1="-203.658" y1="905.188" x2="-203.658" y2="79.299"/>
<line fill="none" x1="-203.658" y1="905.188" x2="-203.658" y2="79.299"/>
<line fill="none" x1="-203.658" y1="905.188" x2="-203.658" y2="79.299"/>
<line fill="none" x1="-203.658" y1="905.188" x2="-203.658" y2="79.299"/>
<line fill="none" x1="-203.658" y1="905.188" x2="-203.658" y2="79.299"/>
<polygon points="-197.068,655.461 -271.559,598.071 -271.559,616.196 -220.595,655.461 "/>
<polygon points="-237.005,668.108 -271.559,694.727 -271.559,712.852 -213.479,668.108 "/>
<line fill="none" x1="-245.193" y1="1034.866" x2="-245.193" y2="208.976"/>
<line fill="none" x1="-245.193" y1="1034.866" x2="-245.193" y2="208.976"/>
<line fill="none" x1="-245.193" y1="1034.866" x2="-245.193" y2="208.976"/>
<line fill="none" x1="-245.193" y1="1034.866" x2="-245.193" y2="208.976"/>
<line fill="none" x1="-245.193" y1="1034.866" x2="-245.193" y2="208.976"/>
<line fill="none" x1="-277.981" y1="1034.866" x2="-277.981" y2="208.976"/>
<line fill="none" x1="-277.981" y1="1034.866" x2="-277.981" y2="208.976"/>
<line fill="none" x1="-277.981" y1="1034.866" x2="-277.981" y2="208.976"/>
<line fill="none" x1="-277.981" y1="1034.866" x2="-277.981" y2="208.976"/>
<line fill="none" x1="-277.981" y1="1034.866" x2="-277.981" y2="208.976"/>
<line fill="none" x1="-248.568" y1="1479.098" x2="-282.068" y2="664.975"/>
<line fill="none" x1="-248.568" y1="1479.098" x2="-282.068" y2="664.975"/>
<line fill="none" x1="-248.568" y1="1479.098" x2="-282.068" y2="664.975"/>
<line fill="none" x1="-248.568" y1="1479.098" x2="-282.068" y2="664.975"/>
<line fill="none" x1="-248.568" y1="1479.098" x2="-282.068" y2="664.975"/>
<polygon points="239.196,186.472 189.999,160.455 189.999,174.761 239.196,200.78 "/>
<polygon points="264.489,199.849 251.843,193.161 251.843,207.468 264.489,214.156 338.979,174.762 338.979,160.455 "/>
<polygon points="264.489,230.365 264.489,230.365 189.999,190.971 189.999,205.279 264.489,244.672 "/>
<polygon points="277.136,223.677 277.136,237.984 338.979,205.279 338.979,190.971 "/>
<line fill="none" x1="-291.809" y1="136.039" x2="550.081" y2="136.039"/>
<line fill="none" x1="-291.809" y1="136.039" x2="550.081" y2="136.039"/>
<line fill="none" x1="-291.809" y1="136.039" x2="550.081" y2="136.039"/>
<line fill="none" x1="-291.809" y1="136.039" x2="550.081" y2="136.039"/>
<line fill="none" x1="-291.809" y1="136.039" x2="550.081" y2="136.039"/>
<polygon points="253.98,401.629 227.963,450.827 242.27,450.827 268.288,401.629 "/>
<polygon points="267.357,376.336 260.669,388.982 274.977,388.982 281.664,376.336 242.27,301.846 227.963,301.846 "/>
<polygon points="297.873,376.336 297.873,376.336 258.479,450.827 272.787,450.827 312.181,376.336 "/>
<polygon points="291.186,363.689 305.492,363.689 272.787,301.846 258.479,301.846 "/>
<line fill="none" x1="203.547" y1="932.633" x2="203.547" y2="90.744"/>
<line fill="none" x1="203.547" y1="932.633" x2="203.547" y2="90.744"/>
<line fill="none" x1="203.547" y1="932.633" x2="203.547" y2="90.744"/>
<line fill="none" x1="203.547" y1="932.633" x2="203.547" y2="90.744"/>
<line fill="none" x1="203.547" y1="932.633" x2="203.547" y2="90.744"/>
</svg>
