<?xml version="1.0" encoding="utf-8"?>
<!-- Generator: Adobe Illustrator 16.0.0, SVG Export Plug-In . SVG Version: 6.00 Build 0)  -->
<!DOCTYPE svg PUBLIC "-//W3C//DTD SVG 1.1//EN" "http://www.w3.org/Graphics/SVG/1.1/DTD/svg11.dtd">
<svg version="1.1" id="Réteg_1" xmlns="http://www.w3.org/2000/svg" xmlns:xlink="http://www.w3.org/1999/xlink" x="0px" y="0px"
	 width="115.282px" height="74.49px" viewBox="0 0 115.282 74.49" enable-background="new 0 0 115.282 74.49" xml:space="preserve">
<polygon points="55.497,-204.346 -18.994,-261.736 -18.994,-243.612 31.971,-204.346 "/>
<polygon points="15.561,-191.699 -18.994,-165.081 -18.994,-146.956 39.087,-191.699 "/>
<polygon points="-130.322,-204.346 -55.833,-146.956 -55.833,-165.08 -106.795,-204.346 "/>
<polygon points="-90.386,-216.992 -55.832,-243.61 -55.832,-261.735 -113.913,-216.992 "/>
<path d="M479.634-200.707v14.307l-74.49,39.394v-14.307L479.634-200.707z M392.498-168.001l-61.844-32.706v14.307l61.844,32.706
	V-168.001z M379.851-235.718l-49.197-26.017v14.306l49.197,26.019V-235.718z M405.144-222.341l-12.646-6.688v14.307l12.646,6.688
	l74.49-39.394v-14.307L405.144-222.341z M405.144-191.825L405.144-191.825l-74.49-39.394v14.308l74.49,39.393V-191.825z
	 M417.791-198.513v14.307l61.844-32.705v-14.308L417.791-198.513z"/>
<polygon points="189.85,-221.117 140.655,-262.363 140.655,-245.86 189.85,-204.613 "/>
<polygon points="215.145,-164.196 215.145,-164.196 140.655,-226.649 140.655,-210.146 215.145,-147.692 "/>
<polygon points="215.145,-199.91 202.498,-210.514 202.498,-194.01 215.145,-183.406 289.634,-245.859 289.634,-262.364 "/>
<polygon points="227.792,-158.296 289.634,-210.146 289.634,-226.65 227.792,-174.8 "/>
<g>
	<defs>
		<line id="SVGID_1_" x1="-151.154" y1="-286.151" x2="690.736" y2="-286.151"/>
	</defs>
	<clipPath id="SVGID_2_">
		<use xlink:href="#SVGID_1_"  overflow="visible"/>
	</clipPath>
</g>
<g>
	<defs>
		<line id="SVGID_3_" x1="-151.154" y1="-286.151" x2="690.736" y2="-286.151"/>
	</defs>
	<clipPath id="SVGID_4_">
		<use xlink:href="#SVGID_3_"  overflow="visible"/>
	</clipPath>
</g>
<g>
	<defs>
		<line id="SVGID_5_" x1="-151.154" y1="-286.151" x2="690.736" y2="-286.151"/>
	</defs>
	<clipPath id="SVGID_6_">
		<use xlink:href="#SVGID_5_"  overflow="visible"/>
	</clipPath>
</g>
<g>
	<defs>
		<line id="SVGID_7_" x1="-151.154" y1="-286.151" x2="690.736" y2="-286.151"/>
	</defs>
	<clipPath id="SVGID_8_">
		<use xlink:href="#SVGID_7_"  overflow="visible"/>
	</clipPath>
</g>
<g>
	<defs>
		<line id="SVGID_9_" x1="-151.154" y1="-286.151" x2="690.736" y2="-286.151"/>
	</defs>
	<clipPath id="SVGID_10_">
		<use xlink:href="#SVGID_9_"  overflow="visible"/>
	</clipPath>
</g>
<polygon points="-72.932,-2.833 -130.322,71.656 -112.198,71.656 -72.932,20.693 "/>
<polygon points="-60.286,37.103 -33.667,71.657 -15.542,71.657 -60.286,13.576 "/>
<line fill="none" x1="-19.626" y1="-27.898" x2="-19.626" y2="813.99"/>
<line fill="none" x1="-19.626" y1="-27.898" x2="-19.626" y2="813.99"/>
<line fill="none" x1="-19.626" y1="-27.898" x2="-19.626" y2="813.99"/>
<line fill="none" x1="-19.626" y1="-27.898" x2="-19.626" y2="813.99"/>
<line fill="none" x1="-19.626" y1="-27.898" x2="-19.626" y2="813.99"/>
<polygon points="57.892,0 115.282,74.49 97.158,74.49 57.892,23.527 "/>
<polygon points="45.246,39.937 18.627,74.491 0.502,74.491 45.246,16.41 "/>
<line fill="none" x1="-58.414" y1="-27.898" x2="-58.414" y2="813.99"/>
<line fill="none" x1="-58.414" y1="-27.898" x2="-58.414" y2="813.99"/>
<line fill="none" x1="-58.414" y1="-27.898" x2="-58.414" y2="813.99"/>
<line fill="none" x1="-58.414" y1="-27.898" x2="-58.414" y2="813.99"/>
<line fill="none" x1="-58.414" y1="-27.898" x2="-58.414" y2="813.99"/>
<polygon points="-130.824,-74.346 -56.334,-131.736 -56.334,-113.612 -107.298,-74.346 "/>
<polygon points="-90.888,-61.699 -56.334,-35.081 -56.334,-16.956 -114.415,-61.699 "/>
<polygon points="54.995,-74.346 -19.495,-16.956 -19.495,-35.08 31.468,-74.346 "/>
<polygon points="15.058,-86.992 -19.496,-113.61 -19.496,-131.735 38.585,-86.992 "/>
<polygon points="-73.434,170.227 -130.824,95.736 -112.7,95.736 -73.434,146.699 "/>
<polygon points="-60.788,130.289 -34.169,95.735 -16.044,95.735 -60.788,153.816 "/>
<line fill="none" x1="7.372" y1="175.058" x2="7.372" y2="-650.832"/>
<line fill="none" x1="7.372" y1="175.058" x2="7.372" y2="-650.832"/>
<line fill="none" x1="7.372" y1="175.058" x2="7.372" y2="-650.832"/>
<line fill="none" x1="7.372" y1="175.058" x2="7.372" y2="-650.832"/>
<line fill="none" x1="7.372" y1="175.058" x2="7.372" y2="-650.832"/>
<polygon points="57.39,170.227 114.78,95.736 96.656,95.736 57.39,146.699 "/>
<polygon points="44.744,130.289 18.125,95.735 0,95.735 44.744,153.816 "/>
<line fill="none" x1="-25.416" y1="172.225" x2="-25.416" y2="-653.666"/>
<line fill="none" x1="-25.416" y1="172.225" x2="-25.416" y2="-653.666"/>
<line fill="none" x1="-25.416" y1="172.225" x2="-25.416" y2="-653.666"/>
<line fill="none" x1="-25.416" y1="172.225" x2="-25.416" y2="-653.666"/>
<line fill="none" x1="-25.416" y1="172.225" x2="-25.416" y2="-653.666"/>
<polygon points="-56.334,247.929 -130.824,190.539 -130.824,208.662 -79.86,247.929 "/>
<polygon points="-96.27,260.575 -130.824,287.193 -130.824,305.318 -72.743,260.575 "/>
<line fill="none" x1="-136.958" y1="655.1" x2="-136.958" y2="-186.791"/>
<line fill="none" x1="-136.958" y1="655.1" x2="-136.958" y2="-186.791"/>
<line fill="none" x1="-136.958" y1="655.1" x2="-136.958" y2="-186.791"/>
<line fill="none" x1="-136.958" y1="655.1" x2="-136.958" y2="-186.791"/>
<line fill="none" x1="-136.958" y1="655.1" x2="-136.958" y2="-186.791"/>
<line fill="none" x1="-136.247" y1="643.332" x2="-136.247" y2="-198.558"/>
<line fill="none" x1="-136.247" y1="643.332" x2="-136.247" y2="-198.558"/>
<line fill="none" x1="-136.247" y1="643.332" x2="-136.247" y2="-198.558"/>
<line fill="none" x1="-136.247" y1="643.332" x2="-136.247" y2="-198.558"/>
<line fill="none" x1="-136.247" y1="643.332" x2="-136.247" y2="-198.558"/>
<polygon points="-56.912,247.654 17.578,305.045 17.578,286.92 -33.385,247.654 "/>
<polygon points="-16.975,235.008 17.579,208.39 17.579,190.265 -40.502,235.008 "/>
<line fill="none" x1="-76.743" y1="181.849" x2="765.147" y2="181.849"/>
<line fill="none" x1="-76.743" y1="181.849" x2="765.147" y2="181.849"/>
<line fill="none" x1="-76.743" y1="181.849" x2="765.147" y2="181.849"/>
<line fill="none" x1="-76.743" y1="181.849" x2="765.147" y2="181.849"/>
<line fill="none" x1="-76.743" y1="181.849" x2="765.147" y2="181.849"/>
<line fill="none" x1="266.952" y1="683.6" x2="-63.548" y2="281.209"/>
<line fill="none" x1="266.952" y1="683.6" x2="-63.548" y2="281.209"/>
<line fill="none" x1="266.952" y1="683.6" x2="-63.548" y2="281.209"/>
<line fill="none" x1="266.952" y1="683.6" x2="-63.548" y2="281.209"/>
<line fill="none" x1="266.952" y1="683.6" x2="-63.548" y2="281.209"/>
<line fill="none" x1="235.164" y1="683.6" x2="-95.336" y2="281.209"/>
<line fill="none" x1="235.164" y1="683.6" x2="-95.336" y2="281.209"/>
<line fill="none" x1="235.164" y1="683.6" x2="-95.336" y2="281.209"/>
<line fill="none" x1="235.164" y1="683.6" x2="-95.336" y2="281.209"/>
<line fill="none" x1="235.164" y1="683.6" x2="-95.336" y2="281.209"/>
<line fill="none" x1="-56.501" y1="430.936" x2="-29.001" y2="1261.058"/>
<line fill="none" x1="-56.501" y1="430.936" x2="-29.001" y2="1261.058"/>
<line fill="none" x1="-56.501" y1="430.936" x2="-29.001" y2="1261.058"/>
<line fill="none" x1="-56.501" y1="430.936" x2="-29.001" y2="1261.058"/>
<line fill="none" x1="-56.501" y1="430.936" x2="-29.001" y2="1261.058"/>
<polygon points="-9.38,393.422 -83.87,450.813 -83.87,432.688 -32.908,393.422 "/>
<polygon points="-49.317,380.775 -83.871,354.156 -83.871,336.031 -25.791,380.775 "/>
<line fill="none" x1="-63.003" y1="639.99" x2="-63.003" y2="-185.898"/>
<line fill="none" x1="-63.003" y1="639.99" x2="-63.003" y2="-185.898"/>
<line fill="none" x1="-63.003" y1="639.99" x2="-63.003" y2="-185.898"/>
<line fill="none" x1="-63.003" y1="639.99" x2="-63.003" y2="-185.898"/>
<line fill="none" x1="-63.003" y1="639.99" x2="-63.003" y2="-185.898"/>
<polygon points="-56.414,393.098 -130.904,335.707 -130.904,353.832 -79.94,393.098 "/>
<polygon points="-96.35,405.744 -130.904,432.363 -130.904,450.488 -72.824,405.744 "/>
<line fill="none" x1="-104.539" y1="769.668" x2="-104.539" y2="-56.222"/>
<line fill="none" x1="-104.539" y1="769.668" x2="-104.539" y2="-56.222"/>
<line fill="none" x1="-104.539" y1="769.668" x2="-104.539" y2="-56.222"/>
<line fill="none" x1="-104.539" y1="769.668" x2="-104.539" y2="-56.222"/>
<line fill="none" x1="-104.539" y1="769.668" x2="-104.539" y2="-56.222"/>
<line fill="none" x1="-137.327" y1="772.502" x2="-137.327" y2="-53.388"/>
<line fill="none" x1="-137.327" y1="772.502" x2="-137.327" y2="-53.388"/>
<line fill="none" x1="-137.327" y1="772.502" x2="-137.327" y2="-53.388"/>
<line fill="none" x1="-137.327" y1="772.502" x2="-137.327" y2="-53.388"/>
<line fill="none" x1="-137.327" y1="772.502" x2="-137.327" y2="-53.388"/>
<line fill="none" x1="-107.914" y1="1216.734" x2="-141.414" y2="402.611"/>
<line fill="none" x1="-107.914" y1="1216.734" x2="-141.414" y2="402.611"/>
<line fill="none" x1="-107.914" y1="1216.734" x2="-141.414" y2="402.611"/>
<line fill="none" x1="-107.914" y1="1216.734" x2="-141.414" y2="402.611"/>
<line fill="none" x1="-107.914" y1="1216.734" x2="-141.414" y2="402.611"/>
<polygon points="379.851,-75.892 330.654,-101.909 330.654,-87.603 379.851,-61.584 "/>
<polygon points="405.144,-62.515 392.498,-69.203 392.498,-54.896 405.144,-48.208 479.634,-87.602 479.634,-101.909 "/>
<polygon points="405.144,-31.999 405.144,-31.999 330.654,-71.393 330.654,-57.085 405.144,-17.692 "/>
<polygon points="417.791,-38.687 417.791,-24.38 479.634,-57.085 479.634,-71.393 "/>
<line fill="none" x1="-151.154" y1="-126.325" x2="690.736" y2="-126.325"/>
<line fill="none" x1="-151.154" y1="-126.325" x2="690.736" y2="-126.325"/>
<line fill="none" x1="-151.154" y1="-126.325" x2="690.736" y2="-126.325"/>
<line fill="none" x1="-151.154" y1="-126.325" x2="690.736" y2="-126.325"/>
<line fill="none" x1="-151.154" y1="-126.325" x2="690.736" y2="-126.325"/>
<polygon points="394.635,139.266 368.618,188.463 382.924,188.463 408.943,139.266 "/>
<polygon points="408.012,113.972 401.324,126.619 415.631,126.619 422.319,113.972 382.924,39.482 368.618,39.482 "/>
<polygon points="438.528,113.972 438.528,113.972 399.134,188.463 413.442,188.463 452.835,113.972 "/>
<polygon points="431.84,101.326 446.147,101.326 413.442,39.482 399.134,39.482 "/>
<line fill="none" x1="344.202" y1="670.27" x2="344.202" y2="-171.62"/>
<line fill="none" x1="344.202" y1="670.27" x2="344.202" y2="-171.62"/>
<line fill="none" x1="344.202" y1="670.27" x2="344.202" y2="-171.62"/>
<line fill="none" x1="344.202" y1="670.27" x2="344.202" y2="-171.62"/>
<line fill="none" x1="344.202" y1="670.27" x2="344.202" y2="-171.62"/>
</svg>
