<?xml version="1.0" encoding="utf-8"?>
<!-- Generator: Adobe Illustrator 16.0.0, SVG Export Plug-In . SVG Version: 6.00 Build 0)  -->
<!DOCTYPE svg PUBLIC "-//W3C//DTD SVG 1.1//EN" "http://www.w3.org/Graphics/SVG/1.1/DTD/svg11.dtd">
<svg version="1.1" id="Réteg_1" xmlns="http://www.w3.org/2000/svg" xmlns:xlink="http://www.w3.org/1999/xlink" x="0px" y="0px"
	 width="74.49px" height="114.78px" viewBox="0 0 74.49 114.78" enable-background="new 0 0 74.49 114.78" xml:space="preserve">
<polygon points="74.49,57.39 0,0 0,18.124 50.964,57.39 "/>
<polygon points="34.554,70.037 0,96.655 0,114.78 58.081,70.037 "/>
<polygon points="-111.329,57.39 -36.839,114.78 -36.839,96.656 -87.802,57.39 "/>
<polygon points="-71.392,44.744 -36.838,18.125 -36.838,0 -94.919,44.744 "/>
<path d="M498.628,61.029v14.307l-74.49,39.394v-14.307L498.628,61.029z M411.491,93.735l-61.844-32.706v14.307l61.844,32.706V93.735
	z M398.845,26.018L349.647,0.001v14.306l49.197,26.019V26.018z M424.138,39.395l-12.646-6.688v14.307l12.646,6.688l74.49-39.394
	V0.001L424.138,39.395z M424.138,69.911L424.138,69.911l-74.49-39.394v14.308l74.49,39.393V69.911z M436.784,63.223V77.53
	l61.844-32.705V30.517L436.784,63.223z"/>
<polygon points="208.844,40.619 159.648,-0.627 159.648,15.876 208.844,57.123 "/>
<polygon points="234.139,97.54 234.139,97.54 159.648,35.087 159.648,51.59 234.139,114.044 "/>
<polygon points="234.139,61.826 221.491,51.222 221.491,67.726 234.139,78.33 308.628,15.876 308.628,-0.628 "/>
<polygon points="246.785,103.44 308.628,51.59 308.628,35.086 246.785,86.936 "/>
<g>
	<defs>
		<line id="SVGID_1_" x1="-132.16" y1="-24.416" x2="709.729" y2="-24.416"/>
	</defs>
	<clipPath id="SVGID_2_">
		<use xlink:href="#SVGID_1_"  overflow="visible"/>
	</clipPath>
</g>
<g>
	<defs>
		<line id="SVGID_3_" x1="-132.16" y1="-24.416" x2="709.729" y2="-24.416"/>
	</defs>
	<clipPath id="SVGID_4_">
		<use xlink:href="#SVGID_3_"  overflow="visible"/>
	</clipPath>
</g>
<g>
	<defs>
		<line id="SVGID_5_" x1="-132.16" y1="-24.416" x2="709.729" y2="-24.416"/>
	</defs>
	<clipPath id="SVGID_6_">
		<use xlink:href="#SVGID_5_"  overflow="visible"/>
	</clipPath>
</g>
<g>
	<defs>
		<line id="SVGID_7_" x1="-132.16" y1="-24.416" x2="709.729" y2="-24.416"/>
	</defs>
	<clipPath id="SVGID_8_">
		<use xlink:href="#SVGID_7_"  overflow="visible"/>
	</clipPath>
</g>
<g>
	<defs>
		<line id="SVGID_9_" x1="-132.16" y1="-24.416" x2="709.729" y2="-24.416"/>
	</defs>
	<clipPath id="SVGID_10_">
		<use xlink:href="#SVGID_9_"  overflow="visible"/>
	</clipPath>
</g>
<polygon points="-53.938,261.736 -111.329,336.226 -93.205,336.226 -53.938,285.263 "/>
<polygon points="-41.292,301.672 -14.673,336.227 3.452,336.227 -41.292,278.146 "/>
<line fill="none" x1="-0.633" y1="236.671" x2="-0.633" y2="1078.56"/>
<line fill="none" x1="-0.633" y1="236.671" x2="-0.633" y2="1078.56"/>
<line fill="none" x1="-0.633" y1="236.671" x2="-0.633" y2="1078.56"/>
<line fill="none" x1="-0.633" y1="236.671" x2="-0.633" y2="1078.56"/>
<line fill="none" x1="-0.633" y1="236.671" x2="-0.633" y2="1078.56"/>
<polygon points="76.886,261.736 134.276,336.226 116.152,336.226 76.886,285.263 "/>
<polygon points="64.24,301.672 37.621,336.227 19.496,336.227 64.24,278.146 "/>
<line fill="none" x1="-39.42" y1="236.671" x2="-39.42" y2="1078.56"/>
<line fill="none" x1="-39.42" y1="236.671" x2="-39.42" y2="1078.56"/>
<line fill="none" x1="-39.42" y1="236.671" x2="-39.42" y2="1078.56"/>
<line fill="none" x1="-39.42" y1="236.671" x2="-39.42" y2="1078.56"/>
<line fill="none" x1="-39.42" y1="236.671" x2="-39.42" y2="1078.56"/>
<polygon points="-111.831,187.39 -37.34,130 -37.34,148.124 -88.305,187.39 "/>
<polygon points="-71.895,200.037 -37.34,226.655 -37.34,244.78 -95.421,200.037 "/>
<polygon points="73.988,187.39 -0.501,244.78 -0.501,226.656 50.461,187.39 "/>
<polygon points="34.052,174.744 -0.502,148.125 -0.502,130 57.579,174.744 "/>
<polygon points="-54.44,431.962 -111.831,357.472 -93.707,357.472 -54.44,408.435 "/>
<polygon points="-41.794,392.025 -15.175,357.471 2.95,357.471 -41.794,415.552 "/>
<line fill="none" x1="26.366" y1="436.793" x2="26.366" y2="-389.096"/>
<line fill="none" x1="26.366" y1="436.793" x2="26.366" y2="-389.096"/>
<line fill="none" x1="26.366" y1="436.793" x2="26.366" y2="-389.096"/>
<line fill="none" x1="26.366" y1="436.793" x2="26.366" y2="-389.096"/>
<line fill="none" x1="26.366" y1="436.793" x2="26.366" y2="-389.096"/>
<polygon points="76.384,431.962 133.774,357.472 115.65,357.472 76.384,408.435 "/>
<polygon points="63.738,392.025 37.119,357.471 18.994,357.471 63.738,415.552 "/>
<line fill="none" x1="-6.422" y1="436.793" x2="-6.422" y2="-389.096"/>
<line fill="none" x1="-6.422" y1="436.793" x2="-6.422" y2="-389.096"/>
<line fill="none" x1="-6.422" y1="436.793" x2="-6.422" y2="-389.096"/>
<line fill="none" x1="-6.422" y1="436.793" x2="-6.422" y2="-389.096"/>
<line fill="none" x1="-6.422" y1="436.793" x2="-6.422" y2="-389.096"/>
<polygon points="-37.34,509.665 -111.831,452.275 -111.831,470.398 -60.866,509.665 "/>
<polygon points="-77.276,522.311 -111.831,548.929 -111.831,567.054 -53.75,522.311 "/>
<line fill="none" x1="-117.965" y1="916.835" x2="-117.965" y2="74.945"/>
<line fill="none" x1="-117.965" y1="916.835" x2="-117.965" y2="74.945"/>
<line fill="none" x1="-117.965" y1="916.835" x2="-117.965" y2="74.945"/>
<line fill="none" x1="-117.965" y1="916.835" x2="-117.965" y2="74.945"/>
<line fill="none" x1="-117.965" y1="916.835" x2="-117.965" y2="74.945"/>
<line fill="none" x1="-117.253" y1="905.068" x2="-117.253" y2="63.178"/>
<line fill="none" x1="-117.253" y1="905.068" x2="-117.253" y2="63.178"/>
<line fill="none" x1="-117.253" y1="905.068" x2="-117.253" y2="63.178"/>
<line fill="none" x1="-117.253" y1="905.068" x2="-117.253" y2="63.178"/>
<line fill="none" x1="-117.253" y1="905.068" x2="-117.253" y2="63.178"/>
<polygon points="-37.918,509.39 36.572,566.781 36.572,548.656 -14.391,509.39 "/>
<polygon points="2.019,496.744 36.573,470.125 36.573,452 -21.508,496.744 "/>
<line fill="none" x1="-57.75" y1="443.584" x2="784.141" y2="443.584"/>
<line fill="none" x1="-57.75" y1="443.584" x2="784.141" y2="443.584"/>
<line fill="none" x1="-57.75" y1="443.584" x2="784.141" y2="443.584"/>
<line fill="none" x1="-57.75" y1="443.584" x2="784.141" y2="443.584"/>
<line fill="none" x1="-57.75" y1="443.584" x2="784.141" y2="443.584"/>
<line fill="none" x1="285.945" y1="945.335" x2="-44.555" y2="542.945"/>
<line fill="none" x1="285.945" y1="945.335" x2="-44.555" y2="542.945"/>
<line fill="none" x1="285.945" y1="945.335" x2="-44.555" y2="542.945"/>
<line fill="none" x1="285.945" y1="945.335" x2="-44.555" y2="542.945"/>
<line fill="none" x1="285.945" y1="945.335" x2="-44.555" y2="542.945"/>
<line fill="none" x1="254.158" y1="945.335" x2="-76.342" y2="542.945"/>
<line fill="none" x1="254.158" y1="945.335" x2="-76.342" y2="542.945"/>
<line fill="none" x1="254.158" y1="945.335" x2="-76.342" y2="542.945"/>
<line fill="none" x1="254.158" y1="945.335" x2="-76.342" y2="542.945"/>
<line fill="none" x1="254.158" y1="945.335" x2="-76.342" y2="542.945"/>
<line fill="none" x1="-37.508" y1="692.671" x2="-10.007" y2="1522.793"/>
<line fill="none" x1="-37.508" y1="692.671" x2="-10.007" y2="1522.793"/>
<line fill="none" x1="-37.508" y1="692.671" x2="-10.007" y2="1522.793"/>
<line fill="none" x1="-37.508" y1="692.671" x2="-10.007" y2="1522.793"/>
<line fill="none" x1="-37.508" y1="692.671" x2="-10.007" y2="1522.793"/>
<polygon points="9.613,655.158 -64.876,712.548 -64.876,694.423 -13.914,655.158 "/>
<polygon points="-30.323,642.511 -64.877,615.892 -64.877,597.767 -6.797,642.511 "/>
<line fill="none" x1="-44.01" y1="904.56" x2="-44.01" y2="78.671"/>
<line fill="none" x1="-44.01" y1="904.56" x2="-44.01" y2="78.671"/>
<line fill="none" x1="-44.01" y1="904.56" x2="-44.01" y2="78.671"/>
<line fill="none" x1="-44.01" y1="904.56" x2="-44.01" y2="78.671"/>
<line fill="none" x1="-44.01" y1="904.56" x2="-44.01" y2="78.671"/>
<polygon points="-37.42,654.833 -111.911,597.443 -111.911,615.568 -60.946,654.833 "/>
<polygon points="-77.356,667.48 -111.911,694.099 -111.911,712.224 -53.83,667.48 "/>
<line fill="none" x1="-85.545" y1="1034.238" x2="-85.545" y2="208.348"/>
<line fill="none" x1="-85.545" y1="1034.238" x2="-85.545" y2="208.348"/>
<line fill="none" x1="-85.545" y1="1034.238" x2="-85.545" y2="208.348"/>
<line fill="none" x1="-85.545" y1="1034.238" x2="-85.545" y2="208.348"/>
<line fill="none" x1="-85.545" y1="1034.238" x2="-85.545" y2="208.348"/>
<line fill="none" x1="-118.333" y1="1034.238" x2="-118.333" y2="208.348"/>
<line fill="none" x1="-118.333" y1="1034.238" x2="-118.333" y2="208.348"/>
<line fill="none" x1="-118.333" y1="1034.238" x2="-118.333" y2="208.348"/>
<line fill="none" x1="-118.333" y1="1034.238" x2="-118.333" y2="208.348"/>
<line fill="none" x1="-118.333" y1="1034.238" x2="-118.333" y2="208.348"/>
<line fill="none" x1="-88.92" y1="1478.47" x2="-122.42" y2="664.347"/>
<line fill="none" x1="-88.92" y1="1478.47" x2="-122.42" y2="664.347"/>
<line fill="none" x1="-88.92" y1="1478.47" x2="-122.42" y2="664.347"/>
<line fill="none" x1="-88.92" y1="1478.47" x2="-122.42" y2="664.347"/>
<line fill="none" x1="-88.92" y1="1478.47" x2="-122.42" y2="664.347"/>
<polygon points="398.845,185.844 349.647,159.827 349.647,174.133 398.845,200.152 "/>
<polygon points="424.138,199.221 411.491,192.533 411.491,206.84 424.138,213.528 498.628,174.134 498.628,159.827 "/>
<polygon points="424.138,229.737 424.138,229.737 349.647,190.343 349.647,204.651 424.138,244.044 "/>
<polygon points="436.784,223.049 436.784,237.356 498.628,204.651 498.628,190.343 "/>
<line fill="none" x1="-132.16" y1="135.411" x2="709.729" y2="135.411"/>
<line fill="none" x1="-132.16" y1="135.411" x2="709.729" y2="135.411"/>
<line fill="none" x1="-132.16" y1="135.411" x2="709.729" y2="135.411"/>
<line fill="none" x1="-132.16" y1="135.411" x2="709.729" y2="135.411"/>
<line fill="none" x1="-132.16" y1="135.411" x2="709.729" y2="135.411"/>
<polygon points="413.629,401.001 387.611,450.199 401.918,450.199 427.937,401.001 "/>
<polygon points="427.006,375.708 420.317,388.354 434.625,388.354 441.313,375.708 401.918,301.218 387.611,301.218 "/>
<polygon points="457.521,375.708 457.521,375.708 418.128,450.199 432.436,450.199 471.829,375.708 "/>
<polygon points="450.834,363.062 465.141,363.062 432.436,301.218 418.128,301.218 "/>
<line fill="none" x1="363.195" y1="932.005" x2="363.195" y2="90.116"/>
<line fill="none" x1="363.195" y1="932.005" x2="363.195" y2="90.116"/>
<line fill="none" x1="363.195" y1="932.005" x2="363.195" y2="90.116"/>
<line fill="none" x1="363.195" y1="932.005" x2="363.195" y2="90.116"/>
<line fill="none" x1="363.195" y1="932.005" x2="363.195" y2="90.116"/>
</svg>
