<?xml version="1.0" encoding="utf-8"?>
<!-- Generator: Adobe Illustrator 16.0.0, SVG Export Plug-In . SVG Version: 6.00 Build 0)  -->
<!DOCTYPE svg PUBLIC "-//W3C//DTD SVG 1.1//EN" "http://www.w3.org/Graphics/SVG/1.1/DTD/svg11.dtd">
<svg version="1.1" id="Réteg_1" xmlns="http://www.w3.org/2000/svg" xmlns:xlink="http://www.w3.org/1999/xlink" x="0px" y="0px"
	 width="115.282px" height="74.49px" viewBox="0 0 115.282 74.49" enable-background="new 0 0 115.282 74.49" xml:space="preserve">
<polygon points="55.497,-300.082 -18.994,-357.472 -18.994,-339.348 31.971,-300.082 "/>
<polygon points="15.561,-287.436 -18.994,-260.817 -18.994,-242.692 39.087,-287.436 "/>
<polygon points="-130.322,-300.082 -55.833,-242.692 -55.833,-260.816 -106.795,-300.082 "/>
<polygon points="-90.386,-312.729 -55.832,-339.347 -55.832,-357.472 -113.913,-312.729 "/>
<path d="M479.634-296.443v14.307l-74.49,39.394v-14.307L479.634-296.443z M392.498-263.737l-61.844-32.706v14.307l61.844,32.706
	V-263.737z M379.851-331.454l-49.197-26.017v14.306l49.197,26.019V-331.454z M405.144-318.077l-12.646-6.688v14.307l12.646,6.688
	l74.49-39.394v-14.307L405.144-318.077z M405.144-287.562L405.144-287.562l-74.49-39.394v14.308l74.49,39.393V-287.562z
	 M417.791-294.25v14.307l61.844-32.705v-14.308L417.791-294.25z"/>
<polygon points="189.85,-316.853 140.655,-358.099 140.655,-341.596 189.85,-300.349 "/>
<polygon points="215.145,-259.933 215.145,-259.933 140.655,-322.385 140.655,-305.882 215.145,-243.428 "/>
<polygon points="215.145,-295.646 202.498,-306.25 202.498,-289.746 215.145,-279.142 289.634,-341.596 289.634,-358.1 "/>
<polygon points="227.792,-254.032 289.634,-305.882 289.634,-322.386 227.792,-270.536 "/>
<g>
	<defs>
		<line id="SVGID_1_" x1="-151.154" y1="-381.888" x2="690.736" y2="-381.888"/>
	</defs>
	<clipPath id="SVGID_2_">
		<use xlink:href="#SVGID_1_"  overflow="visible"/>
	</clipPath>
</g>
<g>
	<defs>
		<line id="SVGID_3_" x1="-151.154" y1="-381.888" x2="690.736" y2="-381.888"/>
	</defs>
	<clipPath id="SVGID_4_">
		<use xlink:href="#SVGID_3_"  overflow="visible"/>
	</clipPath>
</g>
<g>
	<defs>
		<line id="SVGID_5_" x1="-151.154" y1="-381.888" x2="690.736" y2="-381.888"/>
	</defs>
	<clipPath id="SVGID_6_">
		<use xlink:href="#SVGID_5_"  overflow="visible"/>
	</clipPath>
</g>
<g>
	<defs>
		<line id="SVGID_7_" x1="-151.154" y1="-381.888" x2="690.736" y2="-381.888"/>
	</defs>
	<clipPath id="SVGID_8_">
		<use xlink:href="#SVGID_7_"  overflow="visible"/>
	</clipPath>
</g>
<g>
	<defs>
		<line id="SVGID_9_" x1="-151.154" y1="-381.888" x2="690.736" y2="-381.888"/>
	</defs>
	<clipPath id="SVGID_10_">
		<use xlink:href="#SVGID_9_"  overflow="visible"/>
	</clipPath>
</g>
<polygon points="-72.932,-98.57 -130.322,-24.08 -112.198,-24.08 -72.932,-75.043 "/>
<polygon points="-60.286,-58.633 -33.667,-24.079 -15.542,-24.079 -60.286,-82.16 "/>
<line fill="none" x1="-19.626" y1="-123.634" x2="-19.626" y2="718.254"/>
<line fill="none" x1="-19.626" y1="-123.634" x2="-19.626" y2="718.254"/>
<line fill="none" x1="-19.626" y1="-123.634" x2="-19.626" y2="718.254"/>
<line fill="none" x1="-19.626" y1="-123.634" x2="-19.626" y2="718.254"/>
<line fill="none" x1="-19.626" y1="-123.634" x2="-19.626" y2="718.254"/>
<polygon points="57.892,-95.736 115.282,-21.247 97.158,-21.247 57.892,-72.209 "/>
<polygon points="45.246,-55.8 18.627,-21.246 0.502,-21.246 45.246,-79.327 "/>
<line fill="none" x1="-58.414" y1="-123.634" x2="-58.414" y2="718.254"/>
<line fill="none" x1="-58.414" y1="-123.634" x2="-58.414" y2="718.254"/>
<line fill="none" x1="-58.414" y1="-123.634" x2="-58.414" y2="718.254"/>
<line fill="none" x1="-58.414" y1="-123.634" x2="-58.414" y2="718.254"/>
<line fill="none" x1="-58.414" y1="-123.634" x2="-58.414" y2="718.254"/>
<polygon points="-130.824,-170.082 -56.334,-227.472 -56.334,-209.348 -107.298,-170.082 "/>
<polygon points="-90.888,-157.436 -56.334,-130.817 -56.334,-112.692 -114.415,-157.436 "/>
<polygon points="54.995,-170.082 -19.495,-112.692 -19.495,-130.816 31.468,-170.082 "/>
<polygon points="15.058,-182.729 -19.496,-209.347 -19.496,-227.472 38.585,-182.729 "/>
<polygon points="-73.434,74.49 -130.824,0 -112.7,0 -73.434,50.963 "/>
<polygon points="-60.788,34.553 -34.169,-0.001 -16.044,-0.001 -60.788,58.08 "/>
<line fill="none" x1="7.372" y1="79.321" x2="7.372" y2="-746.568"/>
<line fill="none" x1="7.372" y1="79.321" x2="7.372" y2="-746.568"/>
<line fill="none" x1="7.372" y1="79.321" x2="7.372" y2="-746.568"/>
<line fill="none" x1="7.372" y1="79.321" x2="7.372" y2="-746.568"/>
<line fill="none" x1="7.372" y1="79.321" x2="7.372" y2="-746.568"/>
<polygon points="57.39,74.49 114.78,0 96.656,0 57.39,50.963 "/>
<polygon points="44.744,34.553 18.125,-0.001 0,-0.001 44.744,58.08 "/>
<line fill="none" x1="-25.416" y1="76.488" x2="-25.416" y2="-749.402"/>
<line fill="none" x1="-25.416" y1="76.488" x2="-25.416" y2="-749.402"/>
<line fill="none" x1="-25.416" y1="76.488" x2="-25.416" y2="-749.402"/>
<line fill="none" x1="-25.416" y1="76.488" x2="-25.416" y2="-749.402"/>
<line fill="none" x1="-25.416" y1="76.488" x2="-25.416" y2="-749.402"/>
<polygon points="-56.334,152.192 -130.824,94.803 -130.824,112.926 -79.86,152.192 "/>
<polygon points="-96.27,164.839 -130.824,191.457 -130.824,209.582 -72.743,164.839 "/>
<line fill="none" x1="-136.958" y1="559.363" x2="-136.958" y2="-282.527"/>
<line fill="none" x1="-136.958" y1="559.363" x2="-136.958" y2="-282.527"/>
<line fill="none" x1="-136.958" y1="559.363" x2="-136.958" y2="-282.527"/>
<line fill="none" x1="-136.958" y1="559.363" x2="-136.958" y2="-282.527"/>
<line fill="none" x1="-136.958" y1="559.363" x2="-136.958" y2="-282.527"/>
<line fill="none" x1="-136.247" y1="547.596" x2="-136.247" y2="-294.294"/>
<line fill="none" x1="-136.247" y1="547.596" x2="-136.247" y2="-294.294"/>
<line fill="none" x1="-136.247" y1="547.596" x2="-136.247" y2="-294.294"/>
<line fill="none" x1="-136.247" y1="547.596" x2="-136.247" y2="-294.294"/>
<line fill="none" x1="-136.247" y1="547.596" x2="-136.247" y2="-294.294"/>
<polygon points="-56.912,151.918 17.578,209.309 17.578,191.184 -33.385,151.918 "/>
<polygon points="-16.975,139.271 17.579,112.653 17.579,94.528 -40.502,139.271 "/>
<line fill="none" x1="-76.743" y1="86.112" x2="765.147" y2="86.112"/>
<line fill="none" x1="-76.743" y1="86.112" x2="765.147" y2="86.112"/>
<line fill="none" x1="-76.743" y1="86.112" x2="765.147" y2="86.112"/>
<line fill="none" x1="-76.743" y1="86.112" x2="765.147" y2="86.112"/>
<line fill="none" x1="-76.743" y1="86.112" x2="765.147" y2="86.112"/>
<line fill="none" x1="266.952" y1="587.863" x2="-63.548" y2="185.473"/>
<line fill="none" x1="266.952" y1="587.863" x2="-63.548" y2="185.473"/>
<line fill="none" x1="266.952" y1="587.863" x2="-63.548" y2="185.473"/>
<line fill="none" x1="266.952" y1="587.863" x2="-63.548" y2="185.473"/>
<line fill="none" x1="266.952" y1="587.863" x2="-63.548" y2="185.473"/>
<line fill="none" x1="235.164" y1="587.863" x2="-95.336" y2="185.473"/>
<line fill="none" x1="235.164" y1="587.863" x2="-95.336" y2="185.473"/>
<line fill="none" x1="235.164" y1="587.863" x2="-95.336" y2="185.473"/>
<line fill="none" x1="235.164" y1="587.863" x2="-95.336" y2="185.473"/>
<line fill="none" x1="235.164" y1="587.863" x2="-95.336" y2="185.473"/>
<line fill="none" x1="-56.501" y1="335.199" x2="-29.001" y2="1165.321"/>
<line fill="none" x1="-56.501" y1="335.199" x2="-29.001" y2="1165.321"/>
<line fill="none" x1="-56.501" y1="335.199" x2="-29.001" y2="1165.321"/>
<line fill="none" x1="-56.501" y1="335.199" x2="-29.001" y2="1165.321"/>
<line fill="none" x1="-56.501" y1="335.199" x2="-29.001" y2="1165.321"/>
<polygon points="-9.38,297.686 -83.87,355.076 -83.87,336.951 -32.908,297.686 "/>
<polygon points="-49.317,285.039 -83.871,258.42 -83.871,240.295 -25.791,285.039 "/>
<line fill="none" x1="-63.003" y1="544.254" x2="-63.003" y2="-281.635"/>
<line fill="none" x1="-63.003" y1="544.254" x2="-63.003" y2="-281.635"/>
<line fill="none" x1="-63.003" y1="544.254" x2="-63.003" y2="-281.635"/>
<line fill="none" x1="-63.003" y1="544.254" x2="-63.003" y2="-281.635"/>
<line fill="none" x1="-63.003" y1="544.254" x2="-63.003" y2="-281.635"/>
<polygon points="-56.414,297.361 -130.904,239.971 -130.904,258.096 -79.94,297.361 "/>
<polygon points="-96.35,310.008 -130.904,336.627 -130.904,354.752 -72.824,310.008 "/>
<line fill="none" x1="-104.539" y1="673.932" x2="-104.539" y2="-151.958"/>
<line fill="none" x1="-104.539" y1="673.932" x2="-104.539" y2="-151.958"/>
<line fill="none" x1="-104.539" y1="673.932" x2="-104.539" y2="-151.958"/>
<line fill="none" x1="-104.539" y1="673.932" x2="-104.539" y2="-151.958"/>
<line fill="none" x1="-104.539" y1="673.932" x2="-104.539" y2="-151.958"/>
<line fill="none" x1="-137.327" y1="676.766" x2="-137.327" y2="-149.125"/>
<line fill="none" x1="-137.327" y1="676.766" x2="-137.327" y2="-149.125"/>
<line fill="none" x1="-137.327" y1="676.766" x2="-137.327" y2="-149.125"/>
<line fill="none" x1="-137.327" y1="676.766" x2="-137.327" y2="-149.125"/>
<line fill="none" x1="-137.327" y1="676.766" x2="-137.327" y2="-149.125"/>
<line fill="none" x1="-107.914" y1="1120.998" x2="-141.414" y2="306.875"/>
<line fill="none" x1="-107.914" y1="1120.998" x2="-141.414" y2="306.875"/>
<line fill="none" x1="-107.914" y1="1120.998" x2="-141.414" y2="306.875"/>
<line fill="none" x1="-107.914" y1="1120.998" x2="-141.414" y2="306.875"/>
<line fill="none" x1="-107.914" y1="1120.998" x2="-141.414" y2="306.875"/>
<polygon points="379.851,-171.628 330.654,-197.645 330.654,-183.339 379.851,-157.32 "/>
<polygon points="405.144,-158.251 392.498,-164.939 392.498,-150.632 405.144,-143.944 479.634,-183.338 479.634,-197.645 "/>
<polygon points="405.144,-127.735 405.144,-127.735 330.654,-167.129 330.654,-152.821 405.144,-113.428 "/>
<polygon points="417.791,-134.423 417.791,-120.116 479.634,-152.821 479.634,-167.129 "/>
<line fill="none" x1="-151.154" y1="-222.062" x2="690.736" y2="-222.062"/>
<line fill="none" x1="-151.154" y1="-222.062" x2="690.736" y2="-222.062"/>
<line fill="none" x1="-151.154" y1="-222.062" x2="690.736" y2="-222.062"/>
<line fill="none" x1="-151.154" y1="-222.062" x2="690.736" y2="-222.062"/>
<line fill="none" x1="-151.154" y1="-222.062" x2="690.736" y2="-222.062"/>
<polygon points="394.635,43.529 368.618,92.727 382.924,92.727 408.943,43.529 "/>
<polygon points="408.012,18.236 401.324,30.882 415.631,30.882 422.319,18.236 382.924,-56.254 368.618,-56.254 "/>
<polygon points="438.528,18.236 438.528,18.236 399.134,92.727 413.442,92.727 452.835,18.236 "/>
<polygon points="431.84,5.589 446.147,5.589 413.442,-56.254 399.134,-56.254 "/>
<line fill="none" x1="344.202" y1="574.533" x2="344.202" y2="-267.356"/>
<line fill="none" x1="344.202" y1="574.533" x2="344.202" y2="-267.356"/>
<line fill="none" x1="344.202" y1="574.533" x2="344.202" y2="-267.356"/>
<line fill="none" x1="344.202" y1="574.533" x2="344.202" y2="-267.356"/>
<line fill="none" x1="344.202" y1="574.533" x2="344.202" y2="-267.356"/>
</svg>
